<?xml version="1.0" standalone="no"?>
<!DOCTYPE svg PUBLIC "-//W3C//DTD SVG 20010904//EN"
 "http://www.w3.org/TR/2001/REC-SVG-20010904/DTD/svg10.dtd">
<svg version="1.0" xmlns="http://www.w3.org/2000/svg"
 width="960.000000pt" height="960.000000pt" viewBox="0 0 960.000000 960.000000"
 preserveAspectRatio="xMidYMid meet">
<metadata>
Created by potrace 1.14, written by Peter Selinger 2001-2017
</metadata>
<g transform="translate(0.000000,960.000000) scale(0.100000,-0.100000)"
fill="#000000" stroke="none">
<path d="M1944 8382 c-30 -29 -11 -47 34 -30 58 22 157 -16 472 -182 25 -13
47 -25 50 -25 3 -1 37 -17 75 -37 135 -69 215 -114 243 -135 l27 -21 -40 -17
c-22 -10 -87 -30 -145 -47 -224 -62 -419 -135 -604 -226 -48 -24 -137 -17
-291 22 -66 17 -97 30 -102 42 -3 7 -10 14 -17 14 -13 0 -66 -77 -66 -97 0
-12 -69 -175 -90 -215 -15 -26 6 -32 24 -6 9 12 16 26 16 31 0 21 69 153 88
171 26 23 104 23 187 1 6 -1 25 -6 43 -10 62 -14 59 -21 -75 -128 -67 -53
-116 -99 -153 -144 -56 -66 -92 -121 -102 -156 -15 -50 -44 -69 -105 -67 -26
1 -54 1 -60 1 -14 -1 -18 -51 -5 -52 40 -2 98 -12 104 -17 4 -4 9 -29 12 -56
8 -63 22 -118 48 -186 24 -60 80 -161 103 -183 8 -8 17 -26 20 -39 6 -24 3
-25 -77 -42 -116 -24 -127 -25 -183 -31 -27 -3 -61 -7 -75 -10 -25 -4 -71 -10
-185 -20 -68 -7 -105 -26 -105 -55 0 -17 6 -19 48 -16 43 4 87 10 152 22 14 2
54 8 90 14 103 15 143 21 170 26 14 2 49 7 79 10 30 3 64 8 75 10 12 3 44 7
72 10 43 4 54 2 76 -19 28 -26 142 -103 198 -133 19 -10 37 -22 40 -25 7 -8
324 -161 375 -182 102 -40 124 -51 119 -59 -8 -13 -157 -80 -259 -117 -108
-40 -350 -132 -370 -141 -11 -5 -45 -19 -75 -30 -30 -11 -64 -25 -75 -30 -11
-5 -69 -28 -130 -51 -60 -22 -123 -47 -140 -54 -68 -30 -358 -140 -400 -153
-31 -9 -410 -11 -424 -2 -10 6 -1 37 39 131 28 67 67 153 86 191 25 50 30 68
20 68 -18 0 -47 -41 -68 -95 -9 -22 -34 -79 -56 -126 -50 -105 -82 -185 -82
-205 0 -28 53 -34 333 -39 155 -2 417 -7 582 -10 165 -3 419 -7 565 -10 268
-5 644 -13 865 -20 66 -2 300 -7 520 -10 467 -7 553 -10 561 -18 20 -19 23
-103 12 -255 -1 -8 -12 -21 -25 -29 -21 -14 -58 -15 -291 -8 -259 7 -345 8
-1012 19 -173 3 -430 8 -570 11 -239 6 -256 5 -272 -12 -15 -17 -38 -76 -52
-136 -11 -45 16 -28 34 22 25 66 46 81 120 84 97 6 126 -6 246 -100 144 -113
265 -193 372 -244 48 -24 89 -43 92 -44 25 -4 120 -59 120 -69 0 -8 -41 -29
-102 -51 -190 -69 -331 -133 -448 -202 -30 -18 -78 -42 -107 -53 -48 -18 -56
-18 -110 -4 -74 19 -222 74 -307 114 -58 28 -66 35 -66 60 0 24 33 128 60 185
27 59 80 197 84 219 7 36 -9 32 -27 -6 -86 -187 -99 -217 -182 -428 -70 -180
-142 -359 -168 -420 -6 -14 -11 -27 -11 -30 -1 -4 -69 -170 -101 -245 -7 -16
-18 -48 -25 -70 -7 -22 -25 -65 -40 -95 -15 -30 -35 -80 -45 -110 -10 -30 -33
-88 -52 -129 -18 -40 -50 -121 -70 -180 -29 -88 -72 -197 -123 -316 -4 -11
-18 -46 -30 -78 -13 -32 -31 -68 -41 -81 -10 -13 -21 -41 -25 -62 -3 -22 -18
-64 -33 -94 -16 -30 -50 -113 -75 -185 -26 -71 -51 -139 -56 -150 -37 -82 -90
-214 -90 -222 0 -6 -31 -89 -70 -184 -38 -96 -72 -193 -76 -215 -6 -38 -4 -42
19 -48 32 -8 227 -14 627 -21 168 -3 384 -7 480 -10 174 -5 365 -9 930 -20
694 -12 856 -15 1245 -21 226 -3 527 -7 670 -9 143 -2 427 -6 630 -9 409 -6
887 -13 1360 -21 516 -9 871 -15 1270 -20 370 -4 878 -13 1140 -18 72 -2 155
0 185 4 30 4 73 10 95 13 93 12 89 4 49 121 -14 39 -26 75 -28 80 -2 6 -9 24
-16 40 -17 40 -23 18 -10 -36 36 -150 36 -147 4 -155 -46 -12 -461 -4 -494 9
-8 3 -60 22 -115 42 -55 20 -109 40 -120 45 -11 5 -49 21 -85 35 -310 126
-659 300 -830 415 -304 204 -414 290 -395 309 6 5 70 35 143 66 139 58 232
105 370 186 45 27 87 49 91 49 5 0 11 3 13 8 5 11 108 72 122 72 6 0 52 -12
101 -26 50 -14 98 -28 108 -30 10 -2 27 -6 37 -9 18 -6 64 -14 110 -20 14 -2
25 -4 25 -5 0 -2 9 -4 20 -6 44 -7 81 -13 110 -18 17 -3 57 -8 90 -12 33 -4
74 -8 90 -10 17 -2 59 -6 95 -9 36 -3 74 -7 85 -9 11 -2 38 -7 60 -11 58 -11
92 -47 106 -114 14 -67 176 -563 209 -638 12 -29 27 -53 32 -53 6 0 8 6 5 13
-2 6 -86 262 -186 567 -100 305 -193 587 -206 625 -23 68 -301 918 -372 1140
-49 151 -72 203 -82 186 -5 -7 -2 -36 6 -65 7 -28 15 -58 17 -66 2 -8 14 -46
27 -85 13 -38 24 -72 24 -75 2 -6 1 -3 49 -135 19 -55 40 -118 45 -140 5 -22
21 -69 35 -104 16 -39 22 -69 17 -74 -12 -12 -157 -10 -179 2 -10 5 -33 47
-51 93 -38 92 -86 178 -126 223 -14 16 -84 88 -154 160 -71 72 -134 141 -140
153 -14 26 -27 20 194 94 83 27 168 51 190 52 34 1 39 5 38 24 0 12 -2 24 -3
27 -1 3 -3 8 -4 13 -2 4 -8 27 -16 52 -7 25 -14 50 -16 55 -12 54 -155 458
-167 473 -9 11 -12 11 -18 0 -6 -11 17 -86 121 -388 4 -14 20 -53 34 -88 30
-70 26 -92 -22 -116 -32 -16 -322 -121 -372 -134 -44 -12 -76 0 -240 91 -209
116 -329 173 -537 256 -55 22 -47 36 40 76 45 20 100 45 122 55 158 71 241
118 409 229 76 50 141 89 144 87 4 -2 46 -7 94 -10 119 -9 167 -14 176 -20 5
-3 13 4 20 14 13 21 6 28 -30 36 -53 10 -548 23 -1503 39 -407 7 -651 18 -663
29 -3 4 -4 48 -3 99 2 50 4 112 4 136 l1 43 330 -6 c521 -11 845 -16 1206 -21
853 -11 1134 -17 1430 -30 146 -7 475 -7 503 0 37 10 35 26 -18 151 -25 57
-45 107 -45 109 0 2 -12 30 -26 62 -15 31 -35 81 -45 111 -15 43 -39 88 -66
122 -2 2 -8 -2 -12 -9 -5 -8 -3 -24 5 -40 28 -53 91 -197 104 -236 7 -22 28
-76 47 -119 23 -54 30 -81 23 -86 -20 -12 -277 -8 -347 6 -80 15 -128 33 -323
120 -188 84 -176 79 -300 130 -36 14 -78 32 -95 39 -16 8 -145 62 -285 120
-359 150 -471 202 -477 222 -4 11 51 36 212 99 182 70 480 225 493 256 2 4 8
8 12 8 5 0 26 11 46 25 20 14 39 23 43 21 6 -4 30 -8 116 -21 22 -4 51 -8 65
-11 14 -2 41 -6 60 -9 19 -3 46 -7 60 -10 14 -3 66 -12 115 -21 130 -22 127
-21 160 -30 69 -17 93 -52 170 -244 46 -113 60 -140 76 -140 14 0 1 38 -65
190 -37 82 -66 151 -66 154 0 3 -21 54 -46 113 -92 218 -147 333 -155 327 -12
-7 -2 -44 31 -112 14 -32 33 -73 40 -92 8 -19 22 -51 31 -70 26 -53 11 -64
-76 -56 -38 4 -101 13 -138 21 -38 8 -72 14 -75 13 -4 0 -9 0 -12 1 -3 2 -21
4 -40 7 -191 23 -200 32 -134 129 80 116 112 207 119 328 2 40 4 75 4 79 1 7
38 21 61 23 29 1 68 -25 74 -50 12 -48 77 -173 93 -179 24 -10 12 33 -48 170
-74 170 -68 158 -169 409 -118 293 -168 400 -169 362 -1 -15 6 -44 14 -64 16
-38 10 -51 -25 -54 -16 -2 -38 -5 -80 -13 -249 -44 -265 -43 -415 29 -66 31
-151 70 -190 87 -115 48 -395 159 -413 163 -79 19 -185 62 -178 73 6 10 98 56
186 93 41 18 122 54 180 82 324 153 339 158 515 162 95 3 135 0 148 -9 15 -12
167 -325 167 -347 0 -4 11 -33 25 -63 25 -54 45 -79 45 -55 0 10 -100 267
-135 344 -7 17 -21 54 -31 82 -32 91 -34 93 -159 98 -218 9 -889 22 -1625 30
-1618 19 -2032 26 -2500 41 -102 3 -205 8 -230 9 -99 8 -603 17 -1099 19 -434
2 -526 0 -537 -12z m896 -37 c58 -2 222 -6 365 -10 143 -3 325 -8 405 -10 80
-2 186 -7 235 -10 50 -4 96 -7 104 -8 15 0 93 -74 124 -117 36 -51 25 -62 -83
-74 -25 -3 -63 -8 -85 -11 -60 -7 -163 -16 -225 -20 -30 -2 -55 -4 -55 -5 0
-2 -31 -6 -120 -14 -44 -5 -82 -9 -85 -11 -3 -2 -24 -6 -46 -9 -22 -4 -51 -9
-64 -12 -14 -2 -36 -7 -50 -9 -68 -11 -88 -15 -125 -20 -22 -3 -48 -8 -57 -11
-107 -33 -139 -27 -320 64 -90 44 -203 103 -253 130 -49 26 -126 68 -170 91
-44 24 -89 52 -100 63 -20 19 -19 19 240 13 143 -4 307 -8 365 -10z m2005 -51
c237 -3 561 -7 720 -9 160 -2 293 -3 298 -4 16 -2 6 -31 -29 -80 -55 -81 -65
-88 -115 -85 -183 13 -613 23 -1191 28 -282 2 -371 6 -383 16 -19 16 -68 87
-78 114 -5 12 -3 23 5 28 7 4 87 6 178 3 91 -3 359 -8 595 -11z m1895 -19
c669 -9 823 -14 832 -23 14 -14 -43 -45 -292 -159 -30 -14 -120 -57 -200 -95
-80 -39 -162 -72 -182 -73 -20 -2 -85 8 -145 21 -59 14 -121 27 -138 30 -16 3
-59 12 -94 20 -36 8 -79 17 -95 19 -17 2 -42 7 -56 9 -13 3 -40 8 -60 11 -20
3 -45 7 -55 9 -20 4 -124 18 -160 21 -28 4 -115 15 -145 19 -14 2 -46 7 -72
11 -28 3 -45 11 -44 18 4 24 35 73 68 108 62 66 73 69 263 64 94 -2 352 -7
575 -10z m-1175 -200 c75 -7 135 -23 135 -35 0 -10 -66 -100 -85 -116 -8 -5
-29 -9 -47 -8 -18 2 -89 6 -158 9 -69 3 -147 9 -175 12 -27 3 -250 6 -495 7
-501 1 -489 -1 -509 73 -16 55 -14 61 17 65 44 7 1251 0 1317 -7z m-1432 -18
c18 -3 68 -55 88 -90 15 -27 -15 -35 -191 -52 -131 -12 -168 -16 -220 -21 -30
-4 -64 -8 -75 -10 -24 -5 -57 -11 -105 -18 -19 -3 -48 -8 -65 -12 -16 -3 -46
-7 -65 -9 -19 -2 -35 -4 -35 -5 0 -1 -7 -3 -15 -5 -8 -1 -42 -8 -75 -16 -33
-7 -75 -12 -93 -11 -38 1 -232 100 -232 118 0 13 42 30 100 39 19 3 60 10 90
15 105 18 170 27 240 35 25 2 59 6 75 9 17 2 62 7 100 11 39 3 86 8 105 10 19
3 82 7 140 10 57 3 105 7 106 8 4 3 104 -2 127 -6z m1837 -22 c36 -3 72 -8 80
-10 8 -3 35 -7 60 -9 68 -8 165 -21 220 -30 152 -27 179 -32 265 -51 39 -9 81
-18 95 -21 48 -10 90 -28 87 -38 -5 -14 -92 -59 -165 -86 -74 -27 -123 -25
-312 15 -134 27 -140 29 -228 44 -108 20 -171 28 -252 36 -81 7 -135 16 -142
23 -15 15 45 106 87 130 12 7 44 10 80 7 33 -3 89 -7 125 -10z m-2982 -138
c29 -8 152 -74 171 -92 11 -11 8 -16 -20 -29 -54 -25 -169 -66 -169 -60 0 3
-6 2 -12 -3 -7 -4 -15 -8 -18 -9 -3 0 -12 -4 -20 -7 -8 -4 -51 -20 -95 -36
-75 -27 -122 -48 -215 -97 -45 -23 -152 -24 -265 -1 -11 3 -36 7 -55 11 -62
11 -74 14 -115 25 -43 12 -72 27 -65 34 21 19 331 149 385 162 6 1 17 5 25 8
18 7 209 67 230 73 8 2 35 10 60 18 43 15 128 16 178 3z m2422 -21 c92 -5 140
-18 140 -39 0 -19 -70 -127 -83 -128 -7 -1 -15 -1 -19 0 -58 8 -483 18 -879
20 l-175 1 -21 43 c-32 67 -38 104 -16 110 21 6 931 0 1053 -7z m-1141 -18
c13 -9 41 -38 63 -64 29 -35 36 -50 27 -60 -11 -13 -78 -30 -159 -39 -49 -6
-111 -14 -150 -20 -14 -2 -45 -7 -70 -10 -115 -15 -245 -40 -377 -70 -19 -4
-108 58 -232 162 -2 1 -2 5 0 8 6 5 136 33 189 41 19 2 44 7 56 9 27 6 105 16
229 30 33 3 76 8 95 10 19 2 71 7 115 11 44 3 81 7 82 8 1 0 25 1 55 1 34 0
62 -6 77 -17z m2921 -79 c105 -34 423 -160 479 -189 9 -5 42 -21 74 -36 45
-21 55 -29 46 -40 -6 -7 -14 -13 -17 -12 -4 1 -29 -3 -57 -10 -51 -12 -84 -18
-145 -28 -19 -2 -58 -9 -86 -15 -94 -18 -145 -6 -313 77 -85 42 -173 82 -195
89 -68 22 -297 113 -304 120 -10 11 38 45 130 91 l81 42 91 -24 c50 -14 147
-43 216 -65z m-1360 57 c76 -8 138 -17 192 -26 32 -6 68 -12 80 -14 113 -18
132 -22 163 -30 6 -1 26 -6 45 -10 64 -14 130 -37 130 -47 0 -5 -4 -9 -8 -9
-5 0 -17 -8 -28 -18 -38 -35 -129 -100 -150 -106 -11 -4 -101 11 -200 33 -98
22 -199 42 -224 46 -25 4 -57 8 -71 11 -15 2 -47 6 -70 9 -89 11 -149 27 -149
39 0 24 28 81 53 108 24 26 28 27 114 22 48 -2 104 -6 123 -8z m-2507 -117
c81 -41 189 -118 185 -131 -2 -6 -60 -35 -129 -65 -68 -29 -160 -71 -204 -92
-125 -61 -150 -68 -188 -52 -59 25 -171 63 -262 90 -113 33 -118 47 -31 89
134 65 477 183 559 191 4 1 36 -13 70 -30z m3332 -42 c131 -35 481 -173 544
-214 64 -43 76 -34 -129 -95 -229 -68 -218 -67 -297 -20 -78 46 -153 81 -305
141 -153 61 -150 58 -89 113 78 70 124 90 196 85 33 -3 69 -7 80 -10z m-1343
-11 c37 -3 79 -11 94 -16 24 -10 26 -14 20 -51 -3 -22 -11 -48 -16 -57 -6 -9
-28 -64 -50 -122 l-39 -105 -208 2 c-376 3 -563 7 -571 13 -5 3 -18 41 -30 85
-12 44 -32 113 -44 152 -26 85 -23 91 48 102 56 8 695 6 796 -3z m-898 -100
c45 -94 83 -207 79 -228 -5 -21 -14 -23 -153 -43 -58 -8 -116 -17 -130 -20
-14 -3 -35 -7 -47 -9 -13 -3 -26 -7 -31 -10 -5 -3 -22 -7 -38 -10 -16 -3 -56
-11 -90 -17 -33 -7 -72 -9 -86 -6 -18 5 -60 52 -141 159 -63 84 -113 157 -111
163 4 9 91 31 199 50 17 2 41 7 55 10 13 2 42 7 65 10 22 3 65 10 95 15 30 5
82 12 115 16 33 3 78 9 100 13 56 10 79 -8 119 -93z m1236 65 c36 -6 76 -13
90 -16 14 -3 39 -7 55 -9 46 -7 178 -32 263 -50 68 -15 122 -36 122 -48 0 -8
-6 -16 -35 -51 -6 -7 -51 -59 -99 -117 -48 -58 -97 -116 -108 -128 -18 -22
-25 -23 -79 -19 -32 3 -63 8 -68 11 -5 3 -24 8 -42 11 -38 5 -33 4 -189 39
-165 38 -175 41 -178 59 -7 38 94 311 121 329 12 7 49 5 147 -11z m-3535 -75
c28 -3 65 -10 83 -15 17 -5 32 -8 32 -6 0 2 18 -2 40 -10 22 -8 44 -14 48 -14
19 0 103 -24 107 -30 2 -4 -26 -37 -62 -72 -70 -68 -124 -141 -167 -226 -14
-29 -34 -56 -43 -61 -10 -5 -121 -8 -248 -6 -400 4 -364 2 -360 23 18 94 180
268 358 383 73 47 89 49 212 34z m1536 -89 c58 -58 155 -186 174 -230 7 -18
10 -39 6 -45 -4 -7 -36 -23 -72 -36 -35 -13 -93 -38 -128 -55 -75 -39 -85 -37
-178 25 -82 55 -157 100 -238 144 -33 17 -68 41 -77 52 -17 20 -17 21 20 48
64 46 275 131 352 142 67 10 94 2 141 -45z m4685 26 c-2 -3 6 -23 20 -44 13
-21 24 -43 24 -49 0 -5 4 -10 9 -10 4 0 16 -26 26 -57 10 -32 31 -86 46 -120
40 -87 59 -134 59 -144 0 -21 -32 -37 -67 -33 -45 6 -56 14 -82 64 -11 21 -28
49 -38 62 -24 31 -174 179 -253 250 -35 32 -61 60 -58 63 3 3 25 8 49 11 24 3
51 7 59 9 8 2 49 7 90 11 41 3 77 8 79 10 6 5 43 -17 37 -23z m-1974 -19 c142
-45 398 -163 398 -184 -1 -19 -3 -20 -296 -175 -40 -20 -87 -50 -105 -66 -19
-16 -43 -29 -54 -29 -12 0 -57 18 -101 40 -44 22 -89 41 -99 43 -31 6 -78 29
-102 50 -20 18 -21 22 -8 47 22 42 125 169 184 225 29 28 58 55 64 62 17 17
26 16 119 -13z m-3667 -45 c159 -49 269 -91 279 -108 3 -5 -14 -36 -39 -69
-25 -33 -58 -87 -75 -121 -19 -38 -37 -61 -48 -62 -9 0 -24 -2 -33 -4 -9 -1
-36 1 -60 5 -83 15 -134 20 -244 26 -60 3 -136 7 -167 8 -78 4 -92 17 -73 64
33 79 184 235 267 276 56 28 53 28 193 -15z m5266 3 c114 -46 329 -254 376
-364 l12 -26 -57 -4 c-148 -9 -559 3 -582 17 -6 3 -20 25 -31 48 -18 35 -69
108 -89 127 -3 3 -34 36 -69 73 -72 77 -71 90 7 103 26 4 54 8 62 10 8 1 35 6
60 9 84 12 115 17 117 19 7 7 173 -3 194 -12z m-572 -90 c44 -21 212 -185 235
-230 22 -43 13 -72 -22 -73 -89 -3 -285 -17 -337 -23 -193 -23 -220 -20 -229
29 -4 18 -32 70 -62 115 -31 45 -53 88 -50 95 3 8 21 21 41 29 53 22 286 78
302 72 7 -3 13 -2 13 3 0 13 70 2 109 -17z m-4231 -92 c199 -103 322 -188 322
-221 0 -14 -63 -111 -86 -131 -18 -15 -23 -15 -89 9 -38 13 -100 35 -136 48
-36 13 -104 34 -150 46 -139 35 -159 77 -84 179 31 42 110 120 122 120 2 0 48
-23 101 -50z m1892 6 c162 -8 218 -13 231 -22 9 -5 8 -29 -6 -109 -2 -11 -11
-45 -21 -75 -20 -63 -20 -63 -28 -110 -4 -19 -9 -42 -11 -50 -2 -8 -7 -34 -10
-58 -11 -95 -3 -89 -128 -91 -383 -8 -437 -7 -441 9 -7 23 -17 103 -31 230 -2
27 -15 102 -22 135 -24 118 -22 129 31 143 33 9 233 8 436 -2z m-559 -21 c15
-5 44 -85 54 -149 17 -100 24 -171 29 -283 4 -78 5 -76 -54 -87 -14 -3 -36 -8
-50 -11 -14 -4 -36 -8 -50 -9 -14 -2 -35 -6 -47 -10 -24 -8 -52 -13 -103 -21
-20 -3 -45 -7 -56 -9 -32 -6 -50 15 -87 104 -19 47 -67 154 -106 239 -38 85
-68 158 -66 162 6 8 83 28 180 44 17 3 56 10 88 16 32 6 86 12 120 15 33 2 62
6 64 8 4 4 62 -2 84 -9z m1049 -25 c30 -5 64 -12 75 -14 11 -2 40 -9 65 -16
25 -7 54 -14 64 -16 49 -9 118 -37 123 -50 3 -7 -7 -35 -22 -61 -47 -80 -152
-298 -172 -352 -14 -40 -22 -51 -40 -51 -27 0 -203 34 -306 60 -44 11 -81 20
-83 20 -1 0 -1 8 0 18 2 9 7 40 10 67 4 28 9 57 11 65 2 8 6 31 9 50 8 52 46
222 52 232 3 4 7 18 9 30 3 12 10 25 17 30 15 10 105 4 188 -12z m1333 -11
c20 -9 137 -184 137 -204 0 -8 -53 -28 -245 -93 -207 -70 -240 -78 -292 -73
-13 1 -96 105 -106 132 -7 22 27 53 124 112 195 119 312 158 382 126z m-2970
-87 c7 -6 20 -25 29 -44 24 -46 118 -248 118 -253 0 -4 38 -88 72 -162 6 -11
7 -26 4 -31 -7 -12 -112 -65 -133 -68 -8 -1 -30 22 -51 52 -103 150 -162 225
-276 349 -25 28 -45 57 -43 65 5 31 190 112 240 105 15 -2 33 -8 40 -13z
m2199 -64 c107 -50 125 -67 107 -99 -7 -13 -17 -29 -23 -35 -106 -107 -248
-286 -271 -341 -14 -32 -17 -34 -47 -28 -38 9 -125 51 -145 70 -15 15 -17 41
-4 49 5 3 12 23 15 43 10 57 143 317 184 359 43 44 57 42 184 -18z m-4037 -3
c97 -9 101 -12 111 -92 3 -20 14 -57 26 -82 12 -25 22 -48 23 -51 0 -3 20 -34
43 -70 23 -36 42 -70 42 -77 0 -10 -52 -25 -135 -37 -96 -14 -250 -38 -269
-42 -11 -2 -39 -6 -61 -9 -22 -4 -49 -7 -60 -9 -40 -6 -77 18 -136 86 -59 68
-102 145 -114 204 -25 122 -22 172 10 186 19 7 408 2 520 -7z m495 -9 c236
-22 259 -29 301 -102 16 -30 55 -88 85 -129 30 -42 54 -78 54 -79 0 -5 -105
-18 -180 -22 -108 -6 -191 -12 -270 -20 -137 -13 -136 -14 -200 52 -63 65
-119 156 -126 206 -3 18 -7 42 -9 54 -4 24 4 38 25 47 13 6 229 1 320 -7z
m535 -103 c61 -19 147 -53 191 -75 l82 -39 26 -74 c14 -40 26 -78 26 -85 0
-12 -24 -10 -125 10 -27 5 -66 12 -85 15 -19 3 -51 11 -70 17 -89 28 -215 153
-234 231 -14 58 8 58 189 0z m491 25 c46 -35 171 -167 221 -233 66 -87 115
-192 109 -235 -11 -83 -66 -68 -137 39 -57 85 -166 193 -257 255 -95 64 -99
73 -59 122 38 47 68 73 83 74 6 0 24 -10 40 -22z m4083 4 c16 -26 1 -146 -24
-187 -40 -66 -115 -155 -138 -164 -24 -9 -90 -8 -202 4 -38 4 -86 8 -105 10
-19 2 -71 6 -115 10 -100 9 -133 12 -167 14 -16 0 -28 5 -28 9 0 5 24 38 53
74 28 37 65 92 82 123 16 32 39 63 50 71 24 15 110 29 260 40 44 3 81 7 82 8
1 1 56 1 123 1 83 -1 124 -5 129 -13z m705 -5 c2 -10 4 -64 4 -120 0 -113 -1
-117 -81 -237 -63 -94 -100 -130 -136 -130 -15 0 -79 9 -142 21 -63 11 -125
22 -139 24 -68 11 -91 15 -165 30 -44 9 -93 19 -110 22 -16 3 -32 7 -34 9 -2
2 8 21 23 41 91 124 126 206 126 294 0 69 -6 67 339 66 292 -1 310 -2 315 -20z
m-2008 -81 c80 -79 76 -89 -63 -194 -99 -75 -120 -94 -159 -147 -16 -22 -37
-46 -46 -53 -10 -7 -18 -19 -18 -27 0 -7 -14 -25 -31 -39 -34 -29 -54 -25 -82
18 -30 46 -30 69 3 131 70 134 278 364 328 365 8 0 38 -24 68 -54z m598 18
c31 -12 13 -53 -58 -132 -94 -104 -192 -146 -390 -169 l-59 -6 6 39 c19 126
28 134 267 214 103 35 159 50 212 59 3 1 13 -2 22 -5z m-3447 -164 c70 -46
193 -160 193 -178 0 -6 -6 -12 -13 -12 -17 0 -141 64 -175 90 -52 41 -104 140
-73 140 5 0 35 -18 68 -40z m1555 -53 c106 -4 108 -8 103 -124 -8 -178 -22
-229 -64 -240 -56 -15 -430 3 -448 21 -22 22 -26 303 -5 328 9 12 42 15 149
17 75 1 139 4 142 6 2 3 13 2 25 0 12 -3 56 -7 98 -8z m1356 -11 c8 -40 -200
-206 -258 -206 -41 0 91 142 198 213 33 21 56 18 60 -7z m-1837 -13 c2 -19 8
-126 10 -212 4 -120 2 -122 -130 -116 -170 7 -226 25 -235 77 -1 7 -5 27 -9
43 -23 109 -19 138 21 154 100 41 340 78 343 54z m864 -28 c163 -38 158 -35
152 -103 -16 -187 -37 -202 -272 -205 -132 -2 -136 1 -129 96 8 123 21 202 36
231 12 22 56 18 213 -19z m-2240 -28 c55 -26 147 -69 205 -95 58 -26 104 -52
103 -57 -1 -6 -30 -18 -65 -28 -35 -10 -112 -34 -173 -54 -60 -19 -117 -36
-125 -38 -8 -2 -15 -4 -15 -5 0 -8 -43 -7 -57 1 -11 6 -27 12 -36 14 -41 8
-196 70 -298 119 -110 53 -217 119 -242 149 -30 36 29 43 353 42 l250 -1 100
-47z m-736 -42 c74 -48 366 -197 464 -236 31 -12 57 -28 57 -34 0 -7 -15 -19
-32 -28 -64 -31 -328 -127 -360 -131 -41 -5 -138 30 -330 118 -171 79 -343
173 -410 224 -52 39 -51 55 5 66 18 3 43 8 57 11 29 6 83 14 136 21 22 2 66 9
99 14 33 5 87 12 120 15 33 4 61 8 63 10 11 11 72 -12 131 -50z m1004 14 c64
-19 152 -78 117 -79 -18 0 -87 24 -96 33 -4 4 -13 7 -20 7 -18 0 -154 62 -154
71 0 8 58 -4 153 -32z m3677 7 c14 -2 45 -7 70 -10 105 -13 136 -19 154 -29
21 -10 17 -15 -49 -65 -42 -32 -375 -172 -445 -187 -8 -2 -28 -8 -44 -14 -57
-22 -107 -16 -236 31 -69 25 -158 56 -197 69 -40 13 -73 26 -73 29 0 8 70 37
201 84 53 19 112 42 130 52 81 42 146 53 309 48 85 -2 166 -5 180 -8z m-1308
-111 c12 -26 -13 -89 -39 -99 -9 -4 -56 -9 -104 -12 -64 -4 -89 -3 -89 5 0 7
12 52 27 101 17 58 32 90 42 93 25 5 152 -63 163 -88z m-1702 43 c10 -17 22
-49 26 -71 8 -53 -13 -71 -72 -63 -85 11 -116 43 -91 95 11 22 86 71 109 71 4
0 17 -14 28 -32z m2340 17 c0 -6 -38 -22 -97 -41 -48 -15 -58 -10 -15 8 88 35
112 42 112 33z m1090 -10 c0 2 14 0 30 -5 17 -5 54 -11 83 -15 28 -3 59 -8 67
-10 14 -4 49 -10 115 -21 88 -13 201 -37 208 -44 4 -3 5 -13 2 -21 -7 -19
-113 -89 -195 -129 -36 -18 -86 -43 -112 -57 -26 -13 -50 -24 -53 -23 -3 0
-22 -7 -43 -16 -20 -8 -71 -28 -112 -44 -41 -15 -84 -31 -95 -36 -11 -4 -23
-8 -27 -9 -5 -2 -9 -3 -10 -5 -2 -1 -10 -3 -19 -5 -9 -1 -45 -13 -80 -24 l-64
-22 -105 44 c-142 60 -256 116 -270 132 -15 18 15 38 106 69 114 39 273 113
355 166 99 63 166 91 196 79 13 -5 23 -7 23 -4z m-3840 -129 c47 -3 110 -10
140 -15 30 -6 70 -13 89 -16 19 -3 37 -7 40 -9 3 -2 22 -7 41 -10 98 -16 284
-56 291 -63 8 -8 -11 -32 -97 -126 -46 -50 -54 -52 -144 -44 -98 10 -125 14
-346 52 -45 7 -200 38 -214 42 -8 2 -16 4 -17 4 -2 1 -31 7 -65 16 -35 8 -71
16 -82 18 -51 11 -126 36 -131 45 -8 13 26 30 140 68 57 19 130 36 170 39 39
3 72 7 73 8 2 2 9 2 15 0 7 -2 50 -6 97 -9z m2531 -50 c96 -9 116 -12 214 -38
94 -25 158 -54 152 -71 -4 -13 -141 -55 -197 -61 -19 -2 -42 -6 -50 -9 -8 -3
-31 -8 -50 -11 -19 -3 -80 -13 -135 -22 -55 -9 -111 -17 -125 -19 -47 -5 -133
-17 -154 -21 -25 -5 -167 -15 -254 -17 l-62 -2 -54 70 c-93 123 -93 130 -11
140 28 4 79 11 115 16 36 6 79 12 95 14 17 1 46 6 65 9 42 7 93 14 180 22 36
3 66 7 67 8 4 3 132 -2 204 -8z m-895 -91 c21 -4 50 -24 88 -63 76 -78 91
-101 77 -115 -9 -9 -138 -12 -484 -12 -499 0 -724 8 -757 25 -36 19 -22 49 51
111 78 65 97 67 579 63 228 -2 429 -6 446 -9z m-2081 -35 c44 -12 87 -23 96
-25 8 -2 44 -10 80 -18 132 -32 381 -82 454 -92 129 -18 205 -38 205 -54 0
-13 -67 -108 -100 -142 -53 -54 -73 -62 -149 -56 -76 7 -467 75 -646 113 -66
14 -129 27 -140 30 -11 2 -51 13 -90 24 -38 12 -79 23 -90 25 -49 11 -191 58
-203 68 -11 8 -9 13 10 23 19 11 272 112 318 127 32 11 179 -2 255 -23z m3570
-58 c154 -62 272 -114 284 -126 11 -12 10 -16 -7 -25 -37 -20 -175 -59 -262
-75 -14 -2 -27 -5 -30 -6 -3 -2 -8 -2 -11 -2 -3 0 -23 -3 -45 -9 -21 -5 -55
-12 -74 -15 -19 -3 -46 -7 -60 -10 -14 -2 -41 -7 -60 -10 -40 -6 -58 -9 -138
-23 -31 -5 -79 -13 -107 -16 -27 -4 -62 -8 -76 -10 -15 -2 -58 -7 -95 -10 -37
-4 -77 -9 -87 -11 -20 -3 -130 -15 -187 -19 -64 -4 -98 13 -146 73 -48 60 -91
138 -82 147 3 3 45 8 94 10 81 4 106 7 199 21 69 11 242 40 281 48 12 2 38 7
58 10 49 8 157 31 281 60 118 27 199 27 270 -2z m-4195 -113 c30 -12 62 -22
70 -24 8 -2 62 -17 120 -33 58 -16 146 -39 195 -51 50 -12 106 -26 125 -31 19
-5 51 -12 70 -15 19 -4 98 -20 175 -36 77 -16 156 -32 175 -34 19 -3 46 -7 60
-10 52 -11 103 -19 187 -30 45 -6 83 -17 83 -23 0 -8 -98 -135 -185 -240 l-59
-73 -406 6 c-223 3 -466 7 -540 10 -74 2 -277 6 -450 9 -528 10 -990 25 -1085
35 -20 2 22 29 75 49 30 11 69 26 85 33 17 6 35 13 40 15 6 1 87 32 180 69 94
37 216 84 272 106 238 90 630 247 648 258 19 11 70 29 90 30 11 0 45 -8 75
-20z m1725 -24 c55 -4 118 -9 140 -11 198 -16 538 -20 870 -10 l199 6 38 -43
c71 -78 114 -166 89 -182 -48 -29 -1053 -22 -1461 10 -164 13 -210 24 -210 48
0 7 25 42 55 77 30 35 55 69 55 76 0 21 40 39 83 38 23 -1 87 -5 142 -9z
m3120 -139 c88 -37 192 -81 230 -98 39 -17 88 -37 110 -45 22 -8 54 -20 70
-28 151 -66 320 -137 363 -154 29 -12 74 -32 101 -46 27 -13 76 -34 110 -45
51 -18 126 -53 166 -78 6 -4 -3 -9 -20 -12 -38 -7 -591 -4 -890 4 -299 8
-1246 24 -1517 25 -93 1 -130 5 -140 15 -53 54 -127 152 -182 238 -42 67 -39
71 59 83 32 3 62 8 65 10 3 2 43 6 90 10 47 4 87 8 90 10 3 1 30 6 61 9 31 4
65 8 75 10 11 2 42 7 69 10 28 4 57 9 65 11 15 4 67 14 105 20 32 5 84 15 165
31 98 20 94 20 175 39 39 9 79 19 90 21 11 3 31 7 45 10 14 3 41 9 60 14 19 5
55 12 79 15 25 3 46 7 48 9 9 9 108 -25 258 -88z m-3335 -141 c41 -4 89 -9
105 -11 128 -13 303 -17 877 -18 361 0 658 -3 661 -6 18 -20 172 -240 180
-258 6 -12 7 -25 3 -30 -8 -7 -168 -7 -1091 2 -772 8 -1101 17 -1148 32 -15 5
-11 14 30 62 26 32 50 59 53 62 4 3 34 42 68 87 34 44 67 83 74 86 15 5 84 2
188 -8z m137 -390 c37 -52 -5 -87 -71 -60 -38 16 -54 54 -30 71 22 17 85 10
101 -11z m261 1 c17 -17 21 -71 8 -120 l-7 -28 -64 6 c-35 3 -81 12 -102 19
l-38 12 1 54 c1 38 6 58 18 66 24 18 164 11 184 -9z m407 10 c96 -5 144 -11
153 -20 8 -7 16 -40 19 -72 8 -93 7 -94 -262 -94 -245 0 -258 4 -250 79 8 83
15 99 43 109 27 9 45 9 297 -2z m448 -15 c8 -8 12 -44 8 -82 -2 -23 -82 -51
-183 -64 -46 -6 -55 8 -56 87 0 53 2 58 26 66 33 11 192 6 205 -7z m131 3 c24
-9 19 -30 -11 -51 -32 -22 -59 -20 -66 6 -10 40 29 63 77 45z m-1441 -45 c19
-22 24 -85 13 -161 -4 -21 -8 -55 -11 -75 -11 -79 -23 -90 -56 -52 -16 18 -18
34 -14 103 11 200 25 236 68 185z m1596 9 c8 -42 7 -286 0 -300 -14 -27 -38
-22 -50 10 -6 15 -13 78 -16 139 -5 94 -3 117 11 138 17 26 51 34 55 13z
m-1439 -93 c36 -18 38 -35 26 -158 -14 -152 -25 -187 -59 -187 -24 0 -64 24
-84 50 -12 15 -10 47 9 130 5 25 12 63 14 85 10 92 34 111 94 80z m1305 -9
c19 -29 29 -100 30 -208 0 -67 -3 -79 -24 -102 -38 -41 -65 -32 -77 24 -11 50
-18 135 -19 198 0 66 3 76 24 93 31 25 47 24 66 -5z m-180 -32 c29 -12 45 -61
51 -161 7 -117 6 -165 -5 -176 -10 -10 -111 -45 -151 -52 -18 -3 -36 -8 -39
-10 -12 -7 -38 20 -47 50 -11 33 -12 274 -1 291 3 6 21 15 39 19 18 4 35 9 38
10 3 1 22 5 43 9 20 5 40 12 43 17 6 11 8 11 29 3z m-870 -29 c16 -4 33 -12
38 -18 8 -11 2 -211 -8 -267 -7 -45 -14 -73 -19 -77 -4 -4 -96 8 -153 21 -64
14 -66 20 -43 146 5 30 12 86 15 124 3 38 8 73 12 79 6 9 90 5 158 -8z m611
-49 c11 -9 16 -43 20 -156 7 -199 29 -184 -273 -187 -138 -1 -243 2 -254 7
-16 9 -17 21 -14 113 6 153 14 220 28 229 19 12 475 7 493 -6z m-2729 -42
c238 -7 547 -12 1017 -18 214 -3 396 -8 405 -11 22 -8 84 -87 97 -127 19 -53
11 -56 -181 -83 -37 -5 -247 -41 -293 -50 -67 -12 -234 -50 -337 -76 -231 -58
-253 -57 -405 9 -117 50 -146 66 -267 139 -76 46 -199 137 -251 187 l-33 31
28 6 c15 3 31 4 35 2 3 -2 87 -6 185 -9z m1553 -59 c21 -25 1 -31 -22 -7 -18
18 -19 22 -6 22 8 0 21 -7 28 -15z m2446 0 c663 -9 1077 -15 1104 -19 14 -1
24 -6 23 -10 -9 -33 -284 -187 -536 -301 -77 -34 -173 -62 -202 -58 -34 4
-107 21 -145 33 -23 8 -317 84 -365 95 -11 2 -47 11 -80 19 -61 15 -103 23
-165 32 -19 2 -73 11 -119 19 -46 8 -85 15 -87 15 -11 0 0 26 36 81 21 33 42
69 45 79 5 17 40 31 56 23 4 -2 200 -5 435 -8z m-556 -14 c0 -17 -27 -61 -44
-73 -11 -7 -22 25 -25 69 -1 19 4 22 34 21 25 -1 35 -6 35 -17z m-1790 -101
c0 -41 -6 -80 -24 -166 -2 -11 -18 -51 -35 -89 -30 -65 -32 -68 -48 -52 -12
12 -17 31 -15 63 3 66 61 273 84 301 19 23 38 -5 38 -57z m1677 38 c4 -7 8
-17 9 -23 40 -226 45 -270 31 -290 -20 -26 -33 -3 -63 110 -30 115 -36 191
-14 205 20 13 27 12 37 -2z m-1533 -104 c50 -38 50 -37 26 -124 -7 -25 -13
-52 -15 -60 -24 -115 -56 -207 -78 -222 -13 -8 -51 12 -94 49 l-32 28 54 162
c56 168 70 203 84 203 4 0 29 -16 55 -36z m1424 23 c6 -7 13 -26 16 -42 3 -17
20 -77 36 -135 39 -133 43 -148 41 -167 -1 -13 -89 -73 -108 -73 -17 0 -27 24
-53 139 -47 202 -44 258 15 281 29 12 41 12 53 -3z m-1727 -102 c-7 -85 -43
-116 -151 -130 -30 -4 -58 -9 -61 -11 -3 -2 -21 -6 -40 -9 -19 -3 -59 -12 -89
-20 -48 -12 -166 -30 -180 -28 -3 0 -44 4 -91 7 -47 4 -97 9 -110 12 -13 2
-36 6 -51 9 -38 5 -98 28 -98 36 0 12 156 58 247 74 18 3 43 9 57 15 15 5 26
8 26 5 0 -2 15 1 32 6 27 7 117 25 283 54 17 2 50 8 75 11 25 3 46 7 48 9 2 2
27 2 55 1 l52 -1 -4 -40z m1569 -14 c15 -58 58 -252 63 -286 6 -42 -7 -62 -56
-84 -58 -26 -92 -36 -162 -47 -16 -3 -36 -7 -42 -9 -29 -10 -51 98 -57 280 -4
97 6 139 32 151 33 14 177 41 194 36 10 -2 22 -20 28 -41z m-1040 18 c79 -17
124 -48 115 -79 -7 -25 -14 -90 -20 -195 -7 -117 -20 -165 -43 -166 -51 -3
-152 20 -231 53 -32 14 -42 23 -38 36 37 127 58 207 67 252 15 77 44 124 73
116 12 -3 47 -10 77 -17z m1530 7 c66 -13 105 -20 175 -31 82 -14 366 -82 503
-121 34 -10 22 -27 -33 -47 -35 -13 -77 -18 -159 -18 -130 0 -179 5 -301 31
-49 11 -124 26 -165 35 -93 20 -118 32 -136 68 -12 22 -14 70 -5 95 2 6 52 1
121 -12z m-796 -73 c2 -10 7 -61 11 -113 3 -52 8 -108 11 -125 23 -147 23
-135 -4 -153 -21 -14 -64 -16 -316 -17 l-291 0 1 100 c2 88 11 258 17 289 5
27 56 33 308 35 240 2 258 1 263 -16z m-2059 -148 c61 -15 113 -31 117 -34 5
-4 -52 -31 -125 -60 -163 -66 -345 -156 -440 -217 l-71 -46 -85 6 c-139 9
-331 57 -331 82 0 14 32 35 140 91 83 43 316 146 325 144 3 -1 20 6 37 15 36
19 79 33 123 41 17 3 32 7 35 10 12 12 173 -7 275 -32z m815 -19 c7 -26 9 -58
5 -77 -14 -62 -159 -315 -201 -350 -14 -11 -20 -9 -41 15 -36 42 -29 86 27
171 26 39 77 121 114 183 37 62 71 110 75 107 5 -2 14 -24 21 -49z m2075 32
c12 -11 -42 0 -65 14 -10 6 -3 7 20 2 19 -3 40 -10 45 -16z m900 -34 c33 -14
103 -41 155 -60 110 -40 366 -166 458 -224 60 -38 77 -60 48 -60 -8 0 -16 -4
-18 -8 -5 -12 -181 -52 -263 -59 l-74 -6 -133 89 c-73 49 -149 97 -168 108
-19 10 -53 28 -75 40 -22 12 -68 34 -102 49 -157 68 -183 80 -183 88 0 7 34
19 93 35 4 1 10 3 15 4 4 1 9 2 12 2 3 0 28 6 55 13 73 20 113 18 180 -11z
m-1027 -36 c16 -24 52 -88 82 -143 29 -55 61 -112 72 -127 27 -39 30 -68 12
-105 -26 -57 -48 -41 -112 79 -70 135 -134 301 -125 325 10 26 42 12 71 -29z
m-2128 22 c0 -4 -36 -19 -81 -35 -139 -48 -303 -139 -389 -216 -45 -40 -75
-55 -130 -64 -79 -14 -102 -15 -277 -22 -201 -7 -213 0 -110 59 63 37 303 157
312 157 3 0 24 9 48 19 23 10 67 27 97 37 30 10 62 20 70 23 8 3 24 6 35 8 11
1 31 5 45 8 54 11 100 15 215 22 66 3 122 8 123 9 6 6 42 1 42 -5z m2490 -35
c36 -2 81 -7 100 -11 19 -3 46 -8 60 -10 92 -16 283 -93 450 -182 69 -37 142
-76 163 -86 21 -11 52 -33 70 -48 51 -44 29 -50 -163 -43 -307 10 -334 17
-447 116 -84 72 -274 191 -360 224 -47 19 -91 39 -96 44 -9 9 77 8 223 -4z
m-2170 -75 c3 -3 18 -14 33 -23 44 -28 37 -59 -83 -332 -29 -66 -57 -125 -62
-132 -8 -10 -19 -8 -51 9 -64 32 -137 88 -137 105 0 5 43 83 95 172 52 90 95
168 95 172 0 4 12 21 26 38 25 30 26 30 52 14 15 -10 29 -20 32 -23z m1755
-113 c38 -78 84 -168 102 -200 18 -33 33 -65 33 -72 0 -13 -38 -45 -107 -88
l-42 -27 -19 21 c-54 57 -160 367 -153 446 2 18 83 71 101 66 9 -3 46 -66 85
-146z m-4069 60 c44 -16 119 -49 181 -80 51 -26 47 -37 -34 -97 -103 -76 -295
-279 -325 -343 -91 -188 -87 -183 -159 -187 -68 -4 -105 0 -124 13 -17 13 -16
18 23 103 22 49 45 107 52 129 7 22 17 46 23 53 5 6 7 12 4 12 -3 0 9 33 27
73 18 39 39 90 46 112 7 22 28 73 46 113 19 41 34 76 34 79 0 3 10 18 21 35
32 44 55 49 104 22 22 -13 59 -30 81 -37z m1852 41 c-5 -14 -184 -111 -197
-106 -11 4 168 116 187 117 8 1 12 -4 10 -11z m2547 -26 c71 -35 174 -103 215
-141 l35 -32 -45 19 c-159 68 -320 161 -320 185 0 13 60 -3 115 -31z m-585
-53 c12 -22 121 -303 148 -382 15 -45 15 -48 -4 -62 -70 -53 -410 -137 -411
-102 -1 6 -4 32 -8 57 -7 48 -12 114 -20 245 -3 44 -7 104 -9 133 -3 28 -3 52
-1 52 10 0 192 52 210 60 20 9 50 17 72 19 7 0 17 -8 23 -20z m-1250 -20 c58
-17 122 -35 143 -41 21 -6 41 -17 44 -24 10 -26 -74 -444 -91 -456 -22 -15
-196 22 -319 68 -86 33 -90 47 -44 140 19 38 38 80 42 94 4 14 16 43 25 65 10
22 28 63 40 90 19 45 47 95 53 95 1 0 49 -14 107 -31z m-704 -9 c4 -43 -33
-102 -114 -185 -100 -103 -166 -160 -222 -193 -25 -14 -56 -34 -69 -44 -27
-21 -67 -24 -73 -5 -7 19 1 102 16 175 10 45 49 100 93 128 24 15 90 45 145
66 56 21 120 49 142 63 51 31 79 29 82 -5z m2696 -109 c202 -99 238 -127 269
-212 20 -56 20 -153 -2 -174 -35 -35 -136 32 -309 205 -102 103 -153 176 -164
234 -5 30 0 49 12 43 4 -2 91 -45 194 -96z m-1096 44 c1 -26 21 -215 28 -265
2 -19 8 -74 11 -121 6 -70 5 -87 -7 -92 -19 -7 -694 -7 -730 0 -33 6 -35 22
-14 133 14 73 19 107 32 220 4 30 10 65 15 78 5 12 6 22 3 22 -2 0 0 9 5 19
10 18 26 19 333 17 207 0 323 -5 324 -11z m-3017 -17 c14 -5 27 -9 29 -8 1 0
26 -6 55 -14 28 -8 70 -18 92 -21 45 -6 106 -24 117 -34 5 -4 -13 -29 -38 -55
-25 -27 -57 -67 -72 -90 -15 -22 -30 -43 -34 -46 -16 -12 -76 -157 -83 -200
-4 -25 -11 -52 -16 -61 -17 -33 -92 -42 -338 -42 -360 1 -336 -1 -339 27 -6
71 84 215 217 347 102 101 184 167 247 199 41 20 107 20 163 -2z m5601 -143
c116 -95 310 -307 310 -340 0 -2 14 -27 31 -55 17 -27 33 -65 35 -83 3 -17 7
-37 9 -44 2 -6 -2 -16 -8 -20 -12 -9 -29 -9 -327 2 -91 3 -206 7 -257 8 -51 1
-97 7 -103 13 -6 6 -13 33 -16 60 -16 154 -48 237 -140 373 -24 35 -44 67 -44
72 0 4 17 13 38 18 86 22 159 40 187 45 17 3 41 8 55 11 14 3 39 9 55 12 17 2
31 6 33 8 10 9 85 -33 142 -80z m-4727 54 c30 -1 51 -8 54 -16 3 -7 -5 -38
-17 -69 -17 -41 -23 -77 -24 -139 -1 -76 -3 -86 -24 -100 -42 -30 -254 -92
-377 -110 -22 -4 -51 -8 -65 -11 -35 -7 -81 -12 -190 -20 -82 -6 -98 -4 -112
10 -13 12 -15 23 -8 46 5 17 7 30 4 30 -8 0 57 123 100 190 24 36 68 93 100
127 l58 62 96 3 c102 3 323 2 405 -3z m592 -42 c25 -60 -13 -114 -247 -352
l-128 -130 -30 35 c-42 48 -90 121 -90 136 0 8 26 31 58 52 127 84 170 118
277 221 84 80 104 92 127 80 11 -6 26 -25 33 -42z m2472 -4 c13 -40 164 -190
264 -261 138 -101 132 -94 125 -127 -7 -34 -49 -86 -84 -104 -19 -10 -27 -8
-55 13 -17 14 -52 48 -77 77 -25 28 -54 61 -65 73 -11 12 -47 55 -80 96 -32
41 -63 77 -67 78 -4 2 -8 8 -8 12 0 5 -11 26 -25 46 -20 30 -23 40 -13 58 18
35 40 56 60 56 10 0 21 -8 25 -17z m865 -26 l207 -3 36 -40 c56 -60 124 -168
146 -232 11 -31 22 -88 26 -127 3 -38 6 -74 7 -80 1 -13 -163 -16 -224 -5 -25
5 -58 11 -75 14 -64 11 -93 17 -167 36 -88 23 -298 96 -311 109 -5 5 -10 71
-12 147 -1 77 -6 149 -10 161 -8 26 3 29 100 26 38 -1 163 -4 277 -6z m-3187
-123 c5 -6 26 -21 47 -33 33 -20 50 -41 52 -66 0 -5 -13 -30 -28 -55 -16 -25
-44 -67 -61 -95 -91 -142 -141 -223 -154 -247 -12 -23 -19 -27 -47 -23 -65 8
-244 102 -281 146 -10 12 21 49 180 211 106 108 201 201 212 206 19 10 39 -1
80 -44z m2279 -78 c48 -60 92 -114 99 -121 15 -15 117 -131 150 -171 14 -16
23 -35 19 -40 -12 -17 -146 -102 -202 -128 -41 -19 -57 -22 -67 -14 -16 13
-152 218 -154 232 0 3 -25 49 -55 103 -52 95 -62 126 -46 149 10 15 99 74 111
74 6 0 11 4 11 9 0 9 27 20 41 17 4 0 46 -50 93 -110z m-2032 -47 c18 -10 125
-44 168 -53 8 -2 35 -10 60 -17 25 -7 47 -13 50 -13 3 -1 20 -8 38 -15 32 -13
33 -16 28 -55 -6 -49 -9 -63 -29 -138 -8 -31 -12 -59 -9 -62 3 -3 0 -6 -7 -6
-7 0 -10 -4 -7 -9 3 -4 -4 -39 -15 -77 -11 -38 -21 -78 -23 -90 -2 -11 -6 -26
-10 -32 -9 -15 -84 -9 -188 13 -40 9 -82 17 -93 19 -11 2 -30 6 -42 10 -12 4
-31 9 -44 11 -35 7 -129 34 -195 57 l-60 20 110 168 c61 91 120 184 131 206
11 21 28 47 39 57 22 19 67 22 98 6z m1717 -18 c12 -16 49 -82 82 -147 34 -66
76 -140 94 -165 18 -26 40 -60 49 -77 15 -29 15 -32 -4 -49 -16 -16 -128 -58
-179 -68 -9 -2 -16 -4 -16 -5 0 -2 -18 -6 -60 -13 -16 -3 -75 -14 -130 -25
-159 -33 -179 -34 -204 -11 -11 11 -21 27 -22 37 0 9 -2 26 -4 37 -2 11 -7 40
-10 65 -3 25 -15 90 -26 145 -25 129 -29 169 -21 181 4 6 66 25 139 43 72 18
160 43 195 56 82 31 93 31 117 -4z m-2634 -73 c7 -18 29 -53 49 -78 20 -25 36
-52 36 -61 0 -29 -161 -161 -315 -260 -182 -116 -296 -179 -323 -179 -78 0
-266 270 -280 401 -4 45 -3 47 24 53 29 6 89 12 199 20 85 6 187 24 280 47 44
12 87 22 96 24 8 2 32 10 52 19 20 8 37 13 37 11 0 -2 17 5 38 15 59 30 90 26
107 -12z m1686 -34 c167 -3 324 -7 349 -9 25 -1 57 -3 71 -4 25 -1 27 -6 43
-88 9 -49 19 -99 21 -113 3 -14 7 -36 10 -50 3 -14 7 -36 10 -50 22 -106 27
-152 17 -162 -6 -6 -52 -14 -104 -17 -93 -7 -789 -6 -818 1 -44 11 -60 21 -60
37 0 9 11 70 25 134 64 303 78 344 115 332 9 -3 153 -8 321 -11z m1844 -23
c16 -26 326 -119 450 -134 22 -3 78 -11 125 -18 47 -6 96 -13 110 -14 14 -2
26 -4 28 -5 1 -1 8 -3 15 -4 16 -2 10 -30 -20 -91 -42 -83 -91 -151 -163 -225
-66 -68 -102 -90 -136 -84 -34 5 -94 35 -94 46 0 5 -5 8 -12 8 -25 0 -361 253
-455 343 l-43 41 27 35 c35 46 73 84 98 99 24 14 62 15 70 3z m-5203 -84 c4
-6 7 -27 6 -47 -2 -179 84 -356 265 -548 97 -102 108 -121 85 -139 -23 -18
-232 -59 -393 -78 -22 -3 -53 -7 -70 -9 -38 -6 -150 -18 -195 -22 -70 -6 -216
-5 -232 1 -14 6 -14 12 -2 60 15 56 262 681 296 750 12 22 25 43 31 47 17 11
201 -2 209 -15z m770 -5 c6 -6 13 -17 14 -24 1 -7 5 -33 9 -58 13 -89 91 -222
188 -325 31 -32 57 -64 57 -71 0 -7 -22 -24 -50 -38 -27 -14 -50 -24 -50 -21
0 3 -10 -1 -22 -9 -42 -27 -378 -147 -423 -151 -34 -3 -126 71 -235 191 -43
47 -100 129 -100 143 0 6 -4 11 -10 11 -5 0 -10 5 -10 10 0 6 -9 29 -19 53
-35 75 -51 138 -56 208 -2 39 -2 76 1 84 5 11 62 13 350 11 250 -1 347 -5 356
-14z m1118 -88 c30 -19 84 -51 120 -71 83 -46 100 -61 93 -81 -7 -19 -60 -97
-95 -138 -119 -142 -278 -311 -331 -351 -21 -16 -34 -19 -60 -13 -78 18 -428
212 -441 245 -4 11 18 27 234 168 63 41 178 120 255 176 77 55 147 101 155
101 9 0 40 -16 70 -36z m4535 -9 c293 -6 322 -11 310 -49 -2 -6 -6 -27 -9 -46
-13 -102 -67 -223 -141 -322 -62 -83 -213 -238 -251 -258 -54 -29 -246 34
-551 182 -46 22 -83 44 -83 48 0 5 29 39 64 77 95 103 126 139 126 152 0 6 4
11 8 11 9 0 61 102 87 173 l18 48 96 -6 c53 -3 200 -7 326 -10z m-1421 -35
c24 -16 65 -50 92 -75 40 -38 376 -272 448 -312 30 -17 4 -48 -79 -94 -41 -22
-77 -40 -81 -39 -4 1 -10 -2 -13 -7 -8 -12 -226 -108 -265 -117 -26 -6 -35 -1
-91 58 -34 35 -73 79 -86 96 -13 18 -31 39 -40 48 -8 10 -29 35 -45 57 -16 22
-33 44 -37 50 -47 60 -122 166 -133 187 -13 26 -13 27 39 59 69 44 219 119
235 119 7 0 33 -13 56 -30z m1939 16 c33 -3 61 -7 64 -9 2 -3 7 -18 9 -34 5
-31 100 -308 132 -388 18 -43 50 -140 56 -170 2 -5 17 -54 34 -109 17 -54 29
-103 25 -109 -7 -11 -206 -4 -321 12 -40 6 -94 13 -120 17 -26 3 -60 8 -77 11
-16 3 -43 7 -60 9 -75 9 -260 50 -283 63 -15 8 15 49 101 141 166 176 258 335
274 470 3 30 10 63 15 73 11 22 46 37 73 31 11 -2 46 -6 78 -8z m-4636 -175
c29 -11 63 -23 75 -25 41 -9 191 -46 253 -63 33 -9 69 -17 80 -19 11 -1 21 -3
23 -4 1 -2 5 -3 10 -5 51 -14 62 -19 62 -29 0 -7 -13 -51 -29 -98 -16 -48 -27
-89 -23 -92 3 -3 1 -6 -5 -6 -5 0 -10 -6 -11 -12 -4 -61 -110 -356 -123 -344
-2 2 -35 7 -74 10 -74 6 -96 9 -185 28 -30 6 -62 12 -70 13 -108 13 -550 133
-557 151 -6 16 8 35 113 151 44 47 88 96 99 109 11 12 36 41 56 65 20 24 54
64 75 88 22 24 46 52 55 62 24 28 68 48 98 44 14 -2 50 -13 78 -24z m2293 -1
c10 -5 56 -61 103 -123 47 -62 99 -128 116 -147 101 -115 189 -235 180 -247
-10 -11 -82 -39 -125 -47 -10 -3 -55 -13 -99 -25 -182 -46 -246 -59 -470 -97
-163 -28 -192 -28 -205 -4 -6 12 -13 29 -15 39 -2 10 -13 51 -25 91 -12 40
-23 80 -25 89 -2 9 -14 61 -28 116 -14 55 -28 118 -32 140 -4 22 -9 50 -11 62
-4 22 12 31 56 32 47 0 478 103 510 122 20 11 47 11 70 -1z m-1435 -157 c109
-6 417 -6 630 -1 l109 3 17 -56 c10 -31 20 -71 23 -90 3 -19 22 -92 41 -164
44 -156 45 -160 52 -207 5 -34 3 -38 -23 -48 -92 -35 -1088 -31 -1279 5 -11 2
-23 4 -27 4 -4 1 -5 7 -3 14 2 6 7 36 9 65 3 29 14 67 23 85 9 18 18 34 18 37
0 3 12 39 25 80 13 41 25 82 27 90 1 8 15 57 30 108 l27 94 96 -7 c52 -3 145
-9 205 -12z m-1951 -140 c61 -37 171 -99 245 -138 74 -38 137 -76 139 -83 7
-24 -241 -243 -343 -303 -42 -25 -39 -26 -220 63 -218 108 -475 263 -475 288
0 15 79 56 161 84 42 14 112 42 155 62 111 52 207 93 219 94 5 0 59 -30 119
-67z m4452 8 c16 -16 225 -116 314 -151 47 -18 89 -37 94 -42 6 -4 16 -8 23
-8 7 0 38 -11 69 -25 l57 -25 -34 -30 c-19 -16 -38 -30 -42 -30 -5 0 -23 -11
-40 -24 -39 -29 -351 -181 -493 -240 -84 -34 -113 -37 -149 -13 -37 25 -276
264 -299 300 -10 14 -15 31 -11 37 4 6 32 23 63 36 126 57 246 120 345 184 63
40 86 47 103 31z m-5165 -218 c27 -16 49 -31 49 -35 0 -5 5 -8 10 -8 6 0 41
-20 78 -44 115 -75 213 -130 342 -196 179 -90 180 -91 180 -101 0 -10 -134
-111 -299 -224 -223 -153 -645 -347 -1081 -497 l-145 -50 -273 -5 c-150 -3
-288 -2 -307 1 -30 6 -35 11 -35 36 0 16 5 41 11 57 6 15 12 35 14 43 2 8 17
49 34 92 17 42 31 81 31 87 0 5 15 41 34 78 18 37 44 100 56 138 12 39 26 75
30 80 4 6 44 102 90 215 45 113 87 210 93 217 8 8 60 14 142 18 222 9 353 19
430 31 17 3 46 7 65 10 59 7 114 18 148 28 9 3 31 8 47 11 17 2 59 13 95 24
88 26 104 26 161 -6z m1278 -53 c11 -5 64 -24 118 -40 54 -17 112 -35 130 -41
18 -5 40 -12 50 -14 10 -2 61 -13 113 -25 80 -18 195 -41 332 -65 15 -3 39
-10 53 -15 22 -8 24 -14 19 -37 -9 -38 -123 -292 -147 -326 -18 -27 -22 -28
-76 -22 -31 3 -63 7 -71 10 -8 2 -35 6 -60 10 -25 3 -62 9 -82 14 -21 5 -38 7
-38 4 0 -3 -6 0 -13 6 -8 6 -16 9 -18 6 -3 -2 -25 1 -49 6 -25 6 -52 12 -60
14 -8 2 -51 13 -95 24 -44 12 -87 23 -95 25 -70 18 -300 88 -345 106 -16 6
-31 11 -32 11 -4 -1 -31 9 -70 25 -41 16 -37 28 30 85 50 43 121 107 201 182
75 71 145 90 205 57z m3317 -48 c21 -16 72 -60 113 -98 40 -38 101 -95 135
-126 33 -32 64 -58 69 -58 4 0 7 -7 7 -15 0 -27 -58 -47 -335 -117 -123 -31
-142 -35 -184 -44 -14 -3 -28 -7 -31 -9 -4 -2 -20 -7 -36 -9 -16 -3 -40 -8
-54 -11 -63 -14 -123 -25 -167 -31 -26 -3 -51 -8 -54 -10 -3 -2 -33 -6 -65
-10 -32 -3 -61 -7 -64 -9 -3 -2 -40 -7 -81 -10 l-76 -7 -25 59 c-36 79 -104
271 -111 310 -4 18 -3 34 1 37 4 2 34 7 67 11 57 6 108 13 144 20 9 1 54 10
101 19 119 22 129 24 148 30 9 3 33 8 52 11 59 9 311 75 329 85 31 18 77 11
117 -18z m-2286 -178 c30 -3 89 -7 130 -8 42 -1 80 -4 85 -7 14 -8 624 -3 770
5 237 14 264 14 273 2 14 -16 142 -344 142 -361 0 -37 -50 -43 -465 -61 -335
-14 -648 -8 -1013 20 -91 7 -153 15 -189 25 -42 12 -36 43 48 234 l73 168 45
-5 c26 -3 71 -8 101 -12z m-1441 -164 c95 -37 374 -123 436 -134 15 -3 41 -10
58 -15 18 -6 43 -12 57 -15 14 -3 39 -8 55 -11 17 -3 48 -11 70 -17 22 -5 49
-12 60 -13 11 -2 45 -8 75 -14 30 -6 66 -13 79 -16 13 -2 48 -11 77 -20 46
-13 54 -19 54 -39 0 -21 -205 -441 -230 -471 -8 -10 -51 -12 -173 -10 -89 2
-337 7 -552 10 -214 4 -466 8 -560 10 -93 2 -325 6 -515 9 -438 8 -593 18
-573 36 4 4 26 13 48 20 51 16 307 113 360 136 22 10 42 18 45 19 24 7 206 92
325 152 188 95 307 166 450 267 202 143 220 155 235 155 8 1 62 -17 119 -39z
m4116 -34 c24 -5 82 -42 221 -142 237 -170 300 -213 377 -255 103 -56 321
-162 472 -229 204 -90 215 -95 299 -132 79 -34 103 -54 69 -56 -10 -1 -74 -1
-143 -1 -121 0 -213 1 -765 13 -143 3 -388 8 -545 11 -904 15 -929 16 -948 42
-47 62 -228 481 -214 495 5 5 28 10 53 13 90 12 245 36 279 45 19 5 51 11 70
14 19 3 67 12 105 22 39 9 81 18 95 21 38 7 371 91 405 102 17 5 53 19 80 29
28 11 57 18 65 15 8 -3 20 -6 25 -7z m-2909 -250 c39 -4 80 -8 90 -10 215 -42
826 -51 1294 -21 227 15 256 15 272 3 27 -20 228 -445 228 -482 0 -15 -160
-15 -1045 -2 -899 14 -1185 23 -1200 38 -2 2 2 15 9 28 7 14 48 93 90 175 43
83 92 175 108 206 25 49 61 83 78 74 3 -1 37 -6 76 -9z"/>
<path d="M1865 8207 c-4 -10 -5 -21 -1 -24 10 -10 18 4 13 24 -4 17 -4 17 -12
0z"/>
<path d="M1817 8129 c-15 -35 -13 -54 4 -43 17 10 31 56 20 67 -6 6 -15 -2
-24 -24z"/>
<path d="M1731 7939 c-17 -50 -13 -56 14 -19 13 18 22 37 19 41 -10 17 -22 9
-33 -22z"/>
<path d="M1682 7833 c-8 -14 -9 -24 -2 -28 12 -7 24 18 18 37 -3 8 -9 5 -16
-9z"/>
<path d="M1436 7324 c-7 -18 1 -37 13 -29 5 2 11 14 14 25 6 24 -18 28 -27 4z"/>
<path d="M1398 7235 c-6 -14 -15 -25 -20 -25 -4 0 -8 -12 -8 -27 l0 -27 20 20
c23 22 44 84 29 84 -5 0 -15 -11 -21 -25z"/>
<path d="M1258 6933 c-40 -45 -89 -167 -59 -149 11 7 84 157 78 162 -2 2 -11
-4 -19 -13z"/>
<path d="M1142 6698 c-25 -49 -52 -116 -52 -130 0 -34 60 73 81 144 12 42 -3
34 -29 -14z"/>
<path d="M968 6328 c-48 -77 -173 -346 -164 -355 11 -11 59 76 121 215 62 142
79 196 43 140z"/>
</g>
</svg>
