<?xml version="1.0" encoding="UTF-8"?>
<svg xmlns="http://www.w3.org/2000/svg" xmlns:xlink="http://www.w3.org/1999/xlink" width="240px" height="210px" viewBox="0 0 240 210" version="1.1">
<g id="surface1">
<path style=" stroke:none;fill-rule:nonzero;fill:rgb(0%,0%,0%);fill-opacity:1;" d="M 48.667969 15.207031 C 48.457031 15.417969 48.332031 15.792969 48.332031 16.125 C 48.332031 16.582031 48.5 16.582031 49.207031 16.207031 C 50.292969 15.625 52.457031 16.167969 55.625 17.832031 C 56.792969 18.417969 60.707031 20.417969 64.332031 22.292969 C 68 24.125 71.042969 25.832031 71.125 26.082031 C 71.207031 26.332031 69.5 27 67 27.667969 C 60.792969 29.332031 56.167969 31.042969 51.417969 33.5 C 50.207031 34.125 49.832031 34.125 46 33.332031 C 43.375 32.832031 41.792969 32.292969 41.542969 31.875 C 41.25 31.292969 41.082031 31.375 40.375 32.25 C 39.957031 32.792969 39.582031 33.5 39.582031 33.792969 C 39.582031 34.042969 39.042969 35.5 38.332031 36.957031 C 37 39.792969 36.917969 40 37.417969 40 C 37.582031 40 38.167969 38.875 38.707031 37.5 C 40.207031 33.75 40.625 33.5 44.207031 34.167969 C 45.792969 34.457031 47.207031 34.875 47.332031 35.042969 C 47.5 35.332031 47.042969 35.707031 43.667969 38.292969 C 42.292969 39.332031 40.917969 40.832031 38.667969 43.792969 C 38.25 44.332031 37.917969 45.082031 37.917969 45.457031 C 37.917969 46.542969 36.832031 47.167969 35.125 47 C 33.917969 46.917969 33.542969 47.042969 33.417969 47.582031 C 33.332031 48.125 33.625 48.292969 34.875 48.417969 L 36.457031 48.542969 L 36.75 51.042969 C 37.125 53.75 38.75 57.457031 40.375 59.292969 C 41 60 41.25 60.582031 41 60.792969 C 40.542969 61.292969 32.457031 62.582031 28.625 62.832031 C 26.457031 62.957031 25.75 63.167969 25.417969 63.75 C 25.207031 64.125 25.125 64.582031 25.25 64.667969 C 25.332031 64.792969 26.875 64.625 28.667969 64.332031 C 30.417969 64.042969 34.5 63.417969 37.707031 62.957031 L 43.5 62.167969 L 45.832031 64 C 48.207031 65.832031 56.292969 70.082031 60.542969 71.667969 C 61.832031 72.167969 62.917969 72.625 62.917969 72.707031 C 62.917969 72.957031 57.875 75.167969 54.167969 76.5 C 52 77.292969 48.625 78.582031 46.667969 79.375 C 42.917969 80.832031 38.875 82.457031 30.625 85.667969 C 25.625 87.582031 25.625 87.582031 20.667969 87.542969 C 17.957031 87.542969 15.625 87.417969 15.5 87.332031 C 15.292969 87.082031 18.167969 80.332031 19.042969 78.957031 C 19.917969 77.625 19.707031 76.707031 18.75 77.917969 C 18.292969 78.5 17.917969 79.125 17.917969 79.332031 C 17.917969 79.5 17.042969 81.457031 16 83.625 C 14.957031 85.792969 14.167969 87.875 14.25 88.25 C 14.332031 88.792969 14.875 88.957031 16.667969 89 C 17.917969 89.042969 26.542969 89.167969 35.832031 89.332031 C 52.542969 89.582031 66.125 89.875 76.332031 90.207031 C 79.25 90.292969 85.582031 90.417969 90.417969 90.417969 C 95.292969 90.457031 99.5 90.582031 99.832031 90.707031 C 100.707031 91.042969 100.667969 97.207031 99.792969 97.917969 C 99.292969 98.332031 97.707031 98.375 93.207031 98.207031 C 89.957031 98.042969 79.332031 97.832031 69.582031 97.707031 C 59.832031 97.582031 50.625 97.375 49.125 97.25 C 47.167969 97.125 46.25 97.207031 45.957031 97.582031 C 45.25 98.5 44.207031 102.125 44.707031 101.957031 C 44.957031 101.875 45.292969 101.292969 45.457031 100.667969 C 46 98.707031 46.582031 98.332031 49.125 98.332031 C 51.375 98.332031 51.625 98.457031 54.375 100.667969 C 59.582031 104.832031 61.917969 106.25 67.832031 108.792969 C 68.832031 109.207031 69.542969 109.75 69.417969 109.957031 C 69.25 110.167969 67.917969 110.75 66.375 111.292969 C 62.75 112.457031 57.917969 114.707031 54.957031 116.5 C 53.667969 117.292969 52.042969 117.917969 51.332031 117.917969 C 50 117.917969 41.832031 114.832031 40.917969 114 C 40.5 113.582031 40.582031 112.917969 41.457031 110.582031 C 42.042969 109 42.875 106.957031 43.292969 106.042969 C 44.332031 103.707031 44.707031 102.5 44.292969 102.5 C 43.917969 102.5 42.25 106.25 39.125 113.957031 C 38.957031 114.417969 38.125 116.582031 37.292969 118.75 C 36.417969 120.917969 35.5 123.25 35.207031 123.957031 C 33 129.167969 31.667969 132.5 31.667969 132.75 C 31.667969 132.917969 31.125 134.25 30.417969 135.707031 C 29.75 137.125 29.167969 138.625 29.167969 138.917969 C 29.167969 139.25 28.707031 140.417969 28.125 141.5 C 27.542969 142.542969 26.917969 144.042969 26.707031 144.75 C 26.375 145.917969 25.917969 147.25 25 149.792969 C 24.832031 150.25 24.332031 151.457031 23.832031 152.5 C 23.375 153.542969 22.792969 155.082031 22.542969 155.917969 C 22.25 156.75 21.75 157.667969 21.417969 157.917969 C 21.125 158.207031 20.832031 158.917969 20.832031 159.542969 C 20.832031 160.167969 20.542969 161.082031 20.167969 161.582031 C 19.582031 162.417969 19.167969 163.457031 17.292969 168.75 C 16.917969 169.792969 16.167969 171.625 15.625 172.832031 C 15.042969 174.042969 14.582031 175.207031 14.582031 175.457031 C 14.582031 175.832031 13.582031 178.417969 12.457031 181.042969 C 11 184.457031 10.457031 186.417969 10.957031 186.75 C 11.417969 187.042969 14.75 187.167969 26.042969 187.332031 C 28.792969 187.332031 35.542969 187.5 41.042969 187.667969 C 52.875 187.957031 67.292969 188.25 88.957031 188.542969 C 97.667969 188.667969 110.042969 188.832031 116.457031 188.957031 C 122.875 189.082031 135.625 189.25 144.792969 189.375 C 153.957031 189.5 166.042969 189.707031 171.667969 189.792969 C 177.292969 189.917969 190.875 190.082031 201.875 190.25 C 212.875 190.375 221.957031 190.542969 222.082031 190.625 C 222.375 190.792969 228.875 190 229.125 189.792969 C 229.167969 189.707031 228.707031 188.082031 228.082031 186.207031 C 226.792969 182.417969 226.207031 182.332031 227.292969 186.082031 C 227.75 187.667969 227.832031 188.582031 227.542969 188.875 C 227.292969 189.125 224.832031 189.207031 221.167969 189.082031 L 215.207031 188.875 L 209.375 186.707031 C 203.792969 184.625 191.125 178.707031 188.832031 177.125 C 188.207031 176.707031 185.542969 174.917969 182.832031 173.125 C 180.167969 171.375 177.5 169.375 176.875 168.75 L 175.75 167.542969 L 177.125 166.957031 C 177.917969 166.625 179.75 165.832031 181.25 165.207031 C 184.042969 164.042969 185.332031 163.332031 191.125 159.917969 L 194.5 157.875 L 198.207031 158.917969 C 202.792969 160.207031 207.957031 161.082031 214.167969 161.625 C 218.25 162 219.082031 162.207031 219.707031 162.957031 C 220.082031 163.457031 220.417969 164.167969 220.417969 164.542969 C 220.417969 164.957031 221.167969 167.5 222.082031 170.25 C 223.042969 172.957031 224.125 176.332031 224.542969 177.75 C 225.292969 180.207031 226.625 183.082031 226.667969 182.332031 C 226.667969 181.875 227 182.917969 220.875 164.375 C 212.917969 140.167969 208.5 126.707031 207.292969 122.792969 C 206.167969 119.292969 205.417969 117.875 205.417969 119.457031 C 205.417969 120.25 208.042969 128.417969 209 130.707031 C 209.332031 131.417969 209.582031 132.292969 209.582031 132.625 C 209.582031 133 209.957031 134.125 210.417969 135.207031 C 210.875 136.292969 211.25 137.332031 211.25 137.542969 C 211.25 137.792969 210.125 137.917969 208.667969 137.832031 C 206.417969 137.707031 206.042969 137.582031 205.917969 136.875 C 205.832031 136.417969 205.125 134.707031 204.332031 133.082031 C 203.167969 130.707031 201.957031 129.25 198.457031 125.832031 C 196.082031 123.5 194.25 121.457031 194.457031 121.292969 C 194.625 121.125 195.917969 120.625 197.292969 120.207031 C 198.667969 119.792969 200.167969 119.332031 200.625 119.125 C 202.667969 118.332031 204.582031 117.875 205 118.125 C 205.207031 118.25 205.417969 118.125 205.417969 117.792969 C 205.417969 116.667969 200.332031 101.667969 199.957031 101.667969 C 199.5 101.667969 199.457031 103.042969 199.875 103.5 C 200.042969 103.667969 200.417969 104.582031 200.667969 105.542969 C 200.917969 106.5 201.375 107.957031 201.667969 108.75 C 203 112.457031 203.457031 113.582031 203.792969 114.25 C 204.667969 115.917969 204.25 116.542969 201.792969 117.417969 C 200.457031 117.875 198.082031 118.75 196.5 119.332031 C 194.917969 119.917969 193.25 120.417969 192.792969 120.417969 C 192.332031 120.417969 190.042969 119.292969 187.75 117.957031 C 185.417969 116.625 182.417969 115 181.042969 114.375 C 179.667969 113.792969 178.167969 113.125 177.707031 112.917969 C 177.25 112.707031 175.957031 112.167969 174.875 111.75 C 172.417969 110.832031 172.542969 110.667969 177.707031 108.542969 C 179.75 107.707031 181.917969 106.667969 182.542969 106.207031 C 183.167969 105.792969 183.792969 105.417969 183.957031 105.417969 C 184.125 105.417969 185.957031 104.292969 188 102.875 L 191.792969 100.375 L 195.167969 100.625 C 197.042969 100.792969 198.792969 100.957031 199.082031 101.042969 C 199.332031 101.167969 199.582031 100.875 199.582031 100.457031 C 199.582031 99.75 198.832031 99.707031 188.667969 99.417969 C 182.625 99.292969 170.292969 99.042969 161.25 98.917969 C 152.207031 98.75 144.667969 98.457031 144.542969 98.25 C 144.417969 98.042969 144.375 97 144.417969 95.917969 C 144.457031 94.832031 144.542969 93.332031 144.542969 92.542969 L 144.582031 91.167969 L 156.167969 91.417969 C 162.5 91.542969 175.667969 91.75 185.417969 91.875 C 195.167969 92 205.957031 92.167969 209.375 92.292969 C 231.457031 93.042969 232.082031 93 232.082031 91.917969 C 232.042969 91.667969 231.707031 90.707031 231.25 89.792969 C 230.792969 88.875 230.457031 88 230.417969 87.832031 C 230.417969 87.667969 229.875 86.332031 229.167969 84.875 C 228.457031 83.375 227.917969 81.957031 227.917969 81.75 C 227.917969 81.125 226.5 78.75 226.167969 78.75 C 225.625 78.75 225.75 79.167969 227.292969 82.375 C 228.082031 84.082031 228.75 85.625 228.75 85.832031 C 228.75 86.042969 229.207031 87.25 229.792969 88.5 C 230.375 89.75 230.832031 90.875 230.832031 91 C 230.832031 91.125 228.875 91.25 226.542969 91.25 C 221.792969 91.25 220.042969 90.792969 214.582031 88.207031 C 212.875 87.417969 210.542969 86.375 209.375 85.917969 C 208.25 85.457031 204.75 84.042969 201.667969 82.707031 C 198.582031 81.417969 194.542969 79.707031 192.707031 78.957031 C 187.5 76.792969 184.582031 75.375 184.582031 75 C 184.582031 74.832031 186.125 74.082031 188.042969 73.417969 C 193.332031 71.5 197.792969 69.332031 201.375 67 L 204.667969 64.832031 L 211.792969 66 C 215.75 66.625 219.5 67.332031 220.167969 67.582031 C 221.375 68.082031 222.082031 69.332031 223.957031 74.332031 C 224.457031 75.707031 225.082031 76.917969 225.332031 77 C 226.042969 77.207031 225.792969 76.542969 223.375 71.125 C 222.667969 69.542969 222.082031 68.167969 222.082031 68.042969 C 222.082031 67.917969 221.792969 67.167969 221.417969 66.332031 C 220.5 64.207031 219.832031 62.667969 218.707031 60 C 218.167969 58.75 217.582031 57.542969 217.417969 57.332031 C 216.957031 56.75 217 58.207031 217.5 59.082031 C 217.707031 59.457031 218.292969 60.707031 218.75 61.875 C 219.207031 63 219.792969 64.292969 220.042969 64.707031 C 220.792969 66.082031 219.167969 66.125 212.707031 64.832031 C 212.25 64.75 210.792969 64.542969 209.457031 64.375 C 206.542969 64.042969 206.167969 63.417969 207.707031 61.582031 C 209.542969 59.375 210.832031 56.042969 210.832031 53.332031 C 210.832031 51.292969 210.957031 50.917969 211.667969 50.707031 C 212.957031 50.375 214.125 50.832031 214.375 51.832031 C 214.832031 53.375 216.207031 56.167969 216.667969 56.457031 C 217.332031 56.875 217.167969 55.957031 216.207031 53.832031 C 215.167969 51.625 213.207031 46.875 212.25 44.375 C 211.417969 42.25 211.292969 41.917969 209.125 36.75 C 208.167969 34.375 207.207031 32.375 207.082031 32.292969 C 206.667969 32.042969 207.125 34.292969 207.582031 34.875 C 208.167969 35.625 208.25 35.582031 199.5 36.957031 C 198.207031 37.167969 197.207031 36.832031 193.25 34.875 C 188.707031 32.667969 177.75 28.332031 176.707031 28.332031 C 176.417969 28.332031 175.792969 28.125 175.332031 27.875 C 174.5 27.417969 174.542969 27.417969 175.707031 26.667969 C 176.375 26.292969 177.375 25.792969 177.957031 25.625 C 178.5 25.457031 181.207031 24.25 183.957031 22.957031 C 192.332031 18.957031 193 18.75 197.082031 18.75 C 200.417969 18.75 200.707031 18.832031 201.125 19.667969 C 201.375 20.207031 202.207031 22.042969 203.042969 23.75 C 203.832031 25.457031 204.832031 27.792969 205.207031 28.875 C 205.625 29.957031 206.167969 30.957031 206.375 31.125 C 206.625 31.292969 206.707031 31.125 206.582031 30.792969 C 202.832031 21.207031 201.542969 18.082031 201.332031 17.875 C 200.957031 17.542969 183.292969 17.167969 156.457031 16.875 C 119.582031 16.5 93.125 16 89.167969 15.625 C 85.457031 15.25 48.957031 14.917969 48.667969 15.207031 Z M 82.875 16.667969 C 98.667969 17.042969 98.917969 17.082031 99.917969 18 C 101.5 19.5 102.625 21.292969 102.25 21.667969 C 102.042969 21.875 98.5 22.332031 94.375 22.707031 C 90.25 23.042969 86.042969 23.542969 85 23.75 C 83.957031 23.957031 81.917969 24.332031 80.417969 24.582031 C 78.917969 24.792969 76.792969 25.207031 75.625 25.457031 C 73.582031 25.917969 73.5 25.917969 69.375 23.875 C 67.082031 22.707031 64 21.082031 62.5 20.25 C 61 19.417969 58.792969 18.25 57.625 17.625 C 56.417969 17.042969 55.417969 16.417969 55.417969 16.167969 C 55.417969 15.957031 57.75 15.917969 61.167969 16.042969 C 64.292969 16.167969 74.082031 16.457031 82.875 16.667969 Z M 126.457031 17.707031 C 137.25 17.832031 146.292969 17.917969 146.582031 17.917969 C 147.207031 17.917969 146.417969 19.542969 145 21.207031 L 144.167969 22.167969 L 137.582031 21.832031 C 134 21.667969 124.875 21.5 117.332031 21.457031 C 104.082031 21.457031 103.625 21.417969 103.167969 20.625 C 102.917969 20.167969 102.375 19.332031 101.957031 18.792969 C 100.957031 17.417969 101.667969 17 104.582031 17.292969 C 105.832031 17.417969 115.707031 17.582031 126.457031 17.707031 Z M 165.417969 18.082031 C 172.875 18.207031 181.332031 18.332031 184.292969 18.332031 C 187.582031 18.332031 189.582031 18.5 189.582031 18.75 C 189.582031 19 188.417969 19.707031 187 20.375 C 181.542969 22.875 175.167969 25.875 173.917969 26.542969 C 172.832031 27.082031 172.25 27.125 170.582031 26.75 C 165.25 25.542969 158.375 24.167969 156.875 24 C 155.957031 23.875 153.167969 23.5 150.625 23.167969 C 148.125 22.792969 146 22.5 145.957031 22.5 C 145.417969 22.5 146.082031 21.082031 147.292969 19.667969 C 148.625 18.125 150.042969 17.5 151.457031 17.75 C 151.707031 17.832031 157.957031 17.957031 165.417969 18.082031 Z M 139.707031 23.125 C 141.332031 23.332031 142.5 23.625 142.5 23.917969 C 142.5 24.207031 142 25.042969 141.332031 25.792969 L 140.207031 27.167969 L 131.667969 26.667969 C 126.582031 26.332031 119.875 26.25 115.167969 26.375 C 106.375 26.667969 106.25 26.625 105.625 24.082031 L 105.332031 22.957031 L 109.875 22.832031 C 117.582031 22.625 136.75 22.832031 139.707031 23.125 Z M 104.75 24.792969 L 105.875 26.25 L 104.917969 26.625 C 104.375 26.832031 102.082031 27.082031 99.792969 27.25 C 97.5 27.417969 94.542969 27.707031 93.25 27.957031 C 86.707031 29 85.5 29.25 83.75 29.667969 C 81.957031 30.082031 81.667969 30.042969 78.792969 28.582031 C 76.957031 27.625 75.875 26.875 76.125 26.625 C 77.042969 25.707031 93.167969 23.582031 100.667969 23.417969 C 103.625 23.332031 103.667969 23.332031 104.75 24.792969 Z M 149.917969 24.207031 C 157.957031 25.042969 169.582031 27.332031 169.582031 28 C 169.582031 28.625 164.582031 30.832031 163.25 30.832031 C 162.5 30.832031 160.207031 30.5 158.125 30.042969 C 151.582031 28.667969 149.042969 28.207031 145.5 27.917969 C 143.625 27.75 141.957031 27.5 141.792969 27.375 C 141.667969 27.207031 142.082031 26.332031 142.707031 25.417969 C 144 23.542969 143.957031 23.542969 149.917969 24.207031 Z M 76.625 28.417969 C 78.125 29.167969 79.332031 29.957031 79.332031 30.167969 C 79.375 30.332031 76.707031 31.375 73.417969 32.457031 C 70.167969 33.542969 66.875 34.875 66.125 35.457031 C 65.042969 36.25 64.332031 36.457031 62.292969 36.417969 C 60.042969 36.375 53.167969 34.957031 52.625 34.417969 C 52.5 34.292969 53.5 33.707031 54.832031 33.082031 C 59.207031 31.125 59.25 31.082031 68.957031 28 C 72.542969 26.832031 73.667969 26.917969 76.625 28.417969 Z M 136.25 28.125 C 139.25 28.5 139.292969 28.542969 138 30.625 C 136.917969 32.5 136.832031 32.542969 135.417969 32.25 C 134.625 32.082031 128.542969 31.917969 121.875 31.875 L 109.832031 31.75 L 109.082031 30.125 C 108.125 27.957031 108.125 28 110.125 27.792969 C 112.332031 27.542969 133.75 27.832031 136.25 28.125 Z M 107.75 29.457031 C 110.167969 32.125 110.417969 31.957031 101.042969 33.167969 C 98.082031 33.542969 94.25 34.207031 92.582031 34.582031 L 89.542969 35.292969 L 86.957031 33.25 C 85.542969 32.125 84.292969 31.082031 84.207031 31 C 83.625 30.457031 96.207031 28.582031 103.125 28.207031 C 104.5 28.125 105.792969 28.042969 106 28 C 106.167969 27.957031 107 28.625 107.75 29.457031 Z M 175.582031 29.207031 C 180.457031 30.625 183.292969 31.625 187.917969 33.582031 C 194.375 36.375 195 36.667969 195 37.042969 C 195 37.25 193.375 37.707031 191.375 38.042969 C 183.707031 39.417969 184.457031 39.5 179.375 36.917969 C 176.875 35.625 174.582031 34.582031 174.292969 34.582031 C 174 34.582031 173.417969 34.375 173 34.167969 C 172.625 33.917969 171 33.292969 169.457031 32.792969 C 167.875 32.25 166.582031 31.667969 166.582031 31.457031 C 166.542969 31.082031 171.417969 28.417969 172.25 28.375 C 172.457031 28.332031 173.957031 28.707031 175.582031 29.207031 Z M 148.167969 29.375 C 154.042969 30.167969 160.417969 31.5 161 32.082031 C 161.25 32.332031 161.25 32.5 161 32.5 C 160.75 32.5 160.207031 32.832031 159.75 33.25 C 159.332031 33.667969 158.332031 34.417969 157.582031 34.957031 C 156.207031 35.917969 156.167969 35.917969 153.417969 35.25 C 148.375 34.042969 144.832031 33.417969 141.75 33.082031 C 139.957031 32.917969 138.582031 32.582031 138.5 32.292969 C 138.375 32 138.707031 31.082031 139.167969 30.25 C 140 28.917969 140.25 28.75 141.832031 28.75 C 142.792969 28.75 145.625 29.042969 148.167969 29.375 Z M 83.667969 32.292969 C 84.75 32.832031 86.167969 33.792969 86.832031 34.332031 L 88.082031 35.375 L 85.707031 36.417969 C 84.457031 37 83.25 37.5 83.082031 37.5 C 82.917969 37.5 81.332031 38.25 79.542969 39.167969 C 76.25 40.832031 75.082031 41.125 74.375 40.457031 C 73.957031 40.082031 69.875 38.75 67.125 38.042969 C 66.332031 37.875 65.625 37.5 65.542969 37.25 C 65.25 36.375 77.207031 31.875 81.375 31.292969 C 81.542969 31.25 82.582031 31.707031 83.667969 32.292969 Z M 169.707031 34.167969 C 176.5 36.542969 178.167969 37.25 179.707031 38.207031 C 180.542969 38.75 181.25 39.25 181.25 39.332031 C 181.25 39.457031 180.167969 39.832031 178.875 40.207031 C 177.542969 40.582031 175.25 41.25 173.792969 41.667969 C 171.25 42.457031 171.042969 42.457031 170.042969 41.792969 C 167.957031 40.417969 165.542969 39.25 161.957031 37.917969 C 159.957031 37.125 158.332031 36.417969 158.332031 36.292969 C 158.375 35.707031 159.917969 34.292969 161.457031 33.417969 C 163.457031 32.292969 164.792969 32.417969 169.707031 34.167969 Z M 131.875 33.292969 C 135.082031 33.5 135.625 33.667969 135.75 34.332031 C 135.832031 34.75 135.707031 35.5 135.457031 36 C 135.207031 36.457031 134.542969 38.082031 134 39.582031 L 133.042969 42.292969 L 130.792969 42.207031 C 129.542969 42.167969 125.125 42.082031 120.957031 42.042969 L 113.375 41.917969 L 113.082031 40.667969 C 112.957031 39.957031 112.417969 38.082031 111.875 36.542969 C 110.832031 33.457031 110.832031 33.5 113.332031 33.207031 C 115.75 32.957031 127.875 33 131.875 33.292969 Z M 109.25 33.832031 C 109.917969 34.375 111.75 38.667969 112.292969 40.917969 C 112.582031 42.125 112.667969 42.125 107.707031 42.707031 C 106.582031 42.875 104.207031 43.332031 102.417969 43.792969 C 97.832031 44.917969 97.5 44.875 96.167969 42.792969 C 95.542969 41.832031 94.167969 40.042969 93.125 38.792969 C 92.082031 37.542969 91.375 36.417969 91.542969 36.25 C 92 35.875 98.582031 34.667969 103.917969 33.957031 C 106.207031 33.667969 108.25 33.417969 108.375 33.375 C 108.5 33.375 108.875 33.582031 109.25 33.832031 Z M 145.875 35 C 152.375 36.167969 154.582031 36.75 154.582031 37.332031 C 154.582031 37.457031 153.417969 38.875 151.957031 40.542969 C 150.542969 42.207031 149.042969 44 148.667969 44.542969 C 148.125 45.292969 147.707031 45.457031 146.792969 45.292969 C 140.792969 44.125 134.75 42.792969 134.457031 42.542969 C 134.125 42.207031 136.457031 35.25 137.207031 34.25 C 137.75 33.582031 137.75 33.582031 145.875 35 Z M 59.25 37.5 L 61.042969 38 L 59.292969 39.542969 C 57.582031 41 55.707031 43.582031 54.707031 45.917969 C 54.417969 46.582031 53.957031 47.082031 53.667969 47.125 C 51.542969 47.207031 38.582031 47.042969 38.457031 46.957031 C 38.292969 46.792969 39.582031 44.042969 40 43.75 C 40.125 43.625 40.625 43.042969 41.082031 42.457031 C 42.5 40.582031 47.5 36.582031 49.082031 36.042969 C 50.542969 35.542969 53.375 35.957031 59.25 37.5 Z M 91.832031 38.832031 C 93.625 40.917969 93.667969 40.957031 95.125 43.082031 C 96.375 44.957031 96.167969 45.625 94.125 46.042969 C 93.417969 46.207031 92.082031 46.792969 91.125 47.332031 C 90.167969 47.875 89.167969 48.332031 88.875 48.332031 C 88.582031 48.332031 87.207031 47.5 85.75 46.5 C 84.292969 45.5 81.957031 44.082031 80.5 43.375 C 79.042969 42.625 77.917969 41.832031 78 41.582031 C 78.417969 40.332031 86.042969 37.125 88.582031 37.082031 C 90.125 37.082031 90.5 37.292969 91.832031 38.832031 Z M 208.332031 37.5 C 208.332031 37.75 208.792969 38.667969 209.375 39.582031 C 209.957031 40.5 210.417969 41.417969 210.417969 41.667969 C 210.417969 42.125 211.792969 45.457031 212.5 46.75 C 212.75 47.167969 212.917969 47.875 212.917969 48.332031 C 212.917969 49 212.625 49.167969 211.5 49.167969 C 210.25 49.167969 209.957031 48.957031 209.207031 47.332031 C 208.332031 45.582031 205.292969 42.417969 201.875 39.707031 C 200.957031 39 200.332031 38.292969 200.5 38.125 C 200.667969 37.957031 202.167969 37.707031 203.832031 37.5 C 208.292969 37.042969 208.332031 37.042969 208.332031 37.5 Z M 161.082031 38.832031 C 164.625 40.082031 169.167969 42.417969 169.167969 42.917969 C 169.167969 43.167969 167 44.332031 160.75 47.582031 C 159.917969 48.042969 159 48.667969 158.707031 49 C 158.042969 49.832031 157.125 49.707031 155.042969 48.542969 C 154.082031 47.957031 153.042969 47.5 152.832031 47.5 C 152.082031 47.5 149.582031 46.167969 149.582031 45.75 C 149.582031 44.457031 155.625 37.5 156.75 37.5 C 157.125 37.5 159.082031 38.082031 161.082031 38.832031 Z M 69.542969 39.917969 C 72.167969 40.792969 74.375 41.707031 74.457031 41.917969 C 74.542969 42.167969 74.042969 43 73.375 43.792969 C 72.667969 44.582031 71.875 45.75 71.625 46.457031 C 70.75 48.667969 70.707031 48.667969 66.792969 48.082031 C 64.75 47.75 61.5 47.5 59.5 47.5 C 57 47.5 55.832031 47.332031 55.707031 46.957031 C 55.042969 45.125 61.542969 38.332031 63.957031 38.332031 C 64.417969 38.332031 66.917969 39.042969 69.542969 39.917969 Z M 200.25 39.832031 C 203.25 41.832031 206.167969 44.542969 207.457031 46.542969 C 208.167969 47.582031 208.75 48.625 208.75 48.832031 C 208.75 49.332031 193.75 49.207031 192.832031 48.707031 C 192.417969 48.5 192.082031 48.042969 192.082031 47.75 C 192.082031 47.042969 189.832031 44.125 187.625 42 C 185.792969 40.207031 185.75 40.207031 190.875 39.417969 C 196.667969 38.5 198.417969 38.582031 200.25 39.832031 Z M 186.957031 43.125 C 188.375 44.417969 189.957031 46.082031 190.457031 46.917969 C 191.625 48.792969 191.207031 49.125 187.707031 49.167969 C 186.332031 49.207031 183.292969 49.417969 180.957031 49.707031 C 176.542969 50.25 175.832031 50.125 175.832031 48.707031 C 175.832031 48.292969 175.167969 47.125 174.375 46.082031 C 173.582031 45 172.917969 43.917969 172.917969 43.582031 C 172.917969 43.207031 174.332031 42.667969 177.207031 41.957031 C 183.582031 40.375 183.917969 40.417969 186.957031 43.125 Z M 79.707031 44.082031 C 84.417969 46.582031 87.332031 48.707031 87 49.457031 C 86.332031 50.917969 84.832031 52.917969 84.375 52.917969 C 84.042969 52.917969 82.417969 52.375 80.707031 51.667969 C 79 51 76.667969 50.207031 75.5 50 C 72.375 49.292969 71.875 48.792969 72.457031 46.957031 C 72.875 45.707031 75.75 42.5 76.5 42.5 C 76.625 42.5 78.082031 43.207031 79.707031 44.082031 Z M 132.167969 44.082031 C 132.5 44.417969 131.832031 47.667969 131.082031 49.582031 C 130.957031 49.917969 130.582031 51.625 130.292969 53.332031 L 129.792969 56.457031 L 122.832031 56.582031 L 115.917969 56.667969 L 115.667969 55.125 C 115.542969 54.25 115.332031 52.5 115.207031 51.25 C 115.082031 50 114.75 48 114.5 46.792969 C 113.707031 43.042969 113.375 43.167969 123.207031 43.457031 C 127.917969 43.582031 131.957031 43.875 132.167969 44.082031 Z M 113.25 46.042969 C 113.917969 48.667969 114.332031 52.082031 114.375 54.75 L 114.375 56.832031 L 110.625 57.625 C 103.917969 59.042969 104.417969 59.082031 103.582031 57 C 103.167969 56.042969 102.667969 54.832031 102.5 54.375 C 102.292969 53.917969 101.375 51.917969 100.457031 49.917969 C 99.5 47.917969 98.75 46.167969 98.75 46.082031 C 98.75 45.457031 108.375 43.792969 111.25 43.917969 C 112.625 43.957031 112.75 44.042969 113.25 46.042969 Z M 141.957031 45.457031 C 147.332031 46.75 147.332031 46.75 146.042969 48.875 C 145.417969 49.832031 144.457031 51.667969 143.917969 52.917969 C 143.332031 54.167969 142.582031 55.707031 142.25 56.332031 C 141.917969 56.917969 141.667969 57.707031 141.667969 58.082031 C 141.667969 58.707031 141.125 58.957031 140.207031 58.75 C 140 58.707031 137.917969 58.292969 135.625 57.832031 C 133.332031 57.375 131.332031 56.875 131.167969 56.707031 C 130.832031 56.417969 132.625 47.082031 133.375 45.125 C 133.75 44.125 133.875 44.082031 136 44.332031 C 137.25 44.457031 139.917969 44.957031 141.957031 45.457031 Z M 172.667969 45.707031 C 173.125 46.292969 173.875 47.582031 174.417969 48.542969 L 175.332031 50.332031 L 169.667969 52.292969 C 161.707031 55 162.082031 54.957031 160.582031 53.042969 C 158.542969 50.457031 158.5 50.542969 161.125 48.875 C 167.75 44.625 171.207031 43.667969 172.667969 45.707031 Z M 97.957031 47.5 C 99 49.457031 103.332031 59.082031 103.332031 59.417969 C 103.332031 59.625 100.082031 61.25 99.667969 61.25 C 99.457031 61.25 98.417969 59.875 97.375 58.167969 C 96.292969 56.5 94.292969 53.957031 92.917969 52.542969 C 91.542969 51.125 90.417969 49.792969 90.417969 49.582031 C 90.417969 48.792969 95.082031 46.707031 96.625 46.792969 C 97.167969 46.832031 97.792969 47.167969 97.957031 47.5 Z M 151.5 48.25 C 156.417969 50.5 156.375 50.375 153.5 53.417969 C 150.75 56.332031 147.917969 60 147.917969 60.625 C 147.917969 61.667969 147.082031 61.75 145 60.792969 C 142.957031 59.875 142.167969 59 142.917969 58.542969 C 143.167969 58.375 143.332031 57.875 143.332031 57.332031 C 143.332031 56.792969 143.792969 55.542969 144.375 54.542969 C 144.917969 53.542969 145.667969 52.082031 146 51.332031 C 147.042969 49.082031 148.332031 47.5 149.167969 47.5 C 149.582031 47.5 150.625 47.832031 151.5 48.25 Z M 53.917969 49.207031 C 54.125 49.417969 54.375 50.375 54.457031 51.332031 C 54.582031 52.542969 55.167969 53.917969 56.292969 55.5 C 57.167969 56.832031 57.917969 58.082031 57.917969 58.292969 C 57.917969 58.5 56.292969 58.875 54.292969 59.125 C 52.25 59.375 49.082031 59.875 47.167969 60.25 C 43.332031 60.957031 43.375 60.957031 41.125 58.417969 C 39.332031 56.417969 38.292969 54.207031 38.042969 51.792969 C 37.625 48.125 37.25 48.292969 45.917969 48.582031 C 50.125 48.707031 53.707031 49 53.917969 49.207031 Z M 64.667969 49.167969 C 70.042969 49.667969 70.625 49.875 71.292969 51.167969 C 72.25 53.042969 74.292969 56 74.957031 56.5 C 75.667969 57.042969 74.125 57.25 66.042969 57.707031 C 63.75 57.875 61.542969 58.082031 61.125 58.207031 C 60.582031 58.332031 59.832031 57.875 58.707031 56.667969 C 56.292969 54.167969 55.167969 51.625 55.375 49.25 C 55.417969 48.625 58.832031 48.582031 64.667969 49.167969 Z M 76.832031 51.457031 C 82.167969 53.207031 84.582031 54.417969 84.582031 55.332031 C 84.582031 55.792969 84.875 56.667969 85.207031 57.332031 C 85.542969 57.957031 85.707031 58.582031 85.625 58.667969 C 85.542969 58.792969 83.667969 58.542969 81.5 58.125 C 77.917969 57.5 77.332031 57.25 75.625 55.75 C 73.707031 54.042969 72.5 52.25 72.5 51.042969 C 72.5 50.207031 73.042969 50.25 76.832031 51.457031 Z M 91.667969 52.792969 C 96.25 57.5 98.707031 61.707031 97.832031 63.417969 C 97.125 64.832031 95.957031 64.25 94.417969 61.75 C 92.957031 59.332031 90.125 56.625 87.332031 54.957031 C 86.5 54.5 85.832031 53.832031 85.832031 53.542969 C 85.832031 52.832031 88.082031 50.417969 88.75 50.417969 C 89.042969 50.417969 90.332031 51.5 91.667969 52.792969 Z M 191.875 52.75 C 191.832031 54.625 191.625 55.207031 190.042969 57.25 C 189.082031 58.582031 188 59.75 187.625 59.875 C 187.292969 60 184.917969 59.917969 182.332031 59.625 C 179.792969 59.375 176.5 59.082031 175.042969 58.957031 C 173.582031 58.875 172.292969 58.707031 172.207031 58.582031 C 172.082031 58.457031 172.582031 57.75 173.292969 57 C 174 56.25 175 54.832031 175.457031 53.875 C 175.917969 52.875 176.542969 51.957031 176.792969 51.792969 C 177.625 51.25 185 50.5 188.542969 50.582031 L 191.875 50.625 Z M 209.5 53.667969 C 209.625 56.667969 209.582031 56.792969 207.792969 59.5 C 205.125 63.542969 205.082031 63.582031 201.75 63 C 196.707031 62.167969 189.375 60.75 189.207031 60.625 C 189.125 60.542969 189.625 59.75 190.292969 58.875 C 192.125 56.542969 192.832031 55 192.957031 52.917969 C 193 51.875 193.125 50.917969 193.207031 50.707031 C 193.332031 50.542969 197 50.457031 201.375 50.5 L 209.375 50.625 Z M 158.917969 52.792969 C 161.375 55.25 161.457031 55.082031 156.75 58.582031 C 155.332031 59.625 153.875 61.042969 153.5 61.707031 C 153.167969 62.375 152.75 62.917969 152.542969 62.917969 C 152.332031 62.917969 152.082031 63.292969 151.957031 63.707031 C 151.875 64.125 151.375 64.707031 150.917969 64.957031 C 150.167969 65.332031 149.917969 65.25 149.167969 64.167969 C 148.125 62.707031 148.25 62.207031 150.125 59.292969 C 152.207031 56.082031 156.457031 51.667969 157.5 51.667969 C 157.667969 51.667969 158.332031 52.167969 158.917969 52.792969 Z M 174.582031 53.042969 C 174.582031 53.917969 172.75 56.167969 170.667969 57.792969 C 169.082031 59 168.167969 59.375 165.167969 59.875 C 163.207031 60.207031 161.5 60.417969 161.417969 60.292969 C 161.292969 60.207031 161.457031 59.25 161.75 58.207031 C 162.292969 56.082031 162.582031 55.875 168.75 53.792969 C 172.667969 52.457031 174.582031 52.207031 174.582031 53.042969 Z M 89.457031 57.832031 C 93.792969 61.457031 94.082031 62.542969 90.125 60.582031 C 88.667969 59.832031 87.332031 58.832031 86.792969 57.957031 C 84.875 55.125 86.125 55.042969 89.457031 57.832031 Z M 160.832031 58.332031 C 160.832031 59.167969 158.082031 61.792969 156.125 62.75 C 155 63.332031 154 63.75 153.917969 63.625 C 153.457031 63.167969 157.417969 59.082031 159.375 58 C 160.207031 57.542969 160.832031 57.707031 160.832031 58.332031 Z M 128.667969 58.167969 C 129.582031 58.417969 129.582031 58.542969 129.332031 62.457031 C 129.125 65.417969 128.875 66.582031 128.375 67 C 127.875 67.457031 126.542969 67.5 122.292969 67.292969 C 119.332031 67.167969 116.707031 66.875 116.5 66.667969 C 115.957031 66.125 115.875 58.582031 116.417969 58.25 C 116.957031 57.875 127.292969 57.832031 128.667969 58.167969 Z M 115.042969 62.292969 C 115.207031 64.667969 115.125 66.25 114.832031 66.625 C 114.5 67.042969 113.667969 67.125 111.25 66.957031 C 106.667969 66.582031 106 66.25 105.667969 64.082031 C 105 60.332031 105.042969 60.292969 107.082031 59.707031 C 110 58.792969 112.167969 58.417969 113.542969 58.457031 L 114.792969 58.542969 Z M 137 59.457031 C 138.75 59.832031 140.167969 60.332031 140.292969 60.667969 C 140.417969 61 140.25 62.417969 139.957031 63.792969 C 139.292969 66.792969 138.957031 67 134.542969 67.082031 C 129.375 67.167969 129.875 67.582031 130.207031 63.417969 C 130.375 61.417969 130.707031 59.457031 130.917969 59.042969 C 131.332031 58.207031 131.167969 58.207031 137 59.457031 Z M 79.707031 59.75 C 80.667969 60.292969 83 61.375 84.875 62.125 C 86.792969 62.917969 88.332031 63.667969 88.332031 63.832031 C 88.332031 64 87.832031 64.25 87.207031 64.417969 C 86.542969 64.542969 84.207031 65.207031 82 65.957031 L 77.957031 67.25 L 75.125 66.292969 C 71.042969 64.832031 67.542969 63.25 64.875 61.542969 C 60.957031 59 61.292969 58.875 70.957031 58.792969 C 77.625 58.75 78.082031 58.792969 79.707031 59.75 Z M 61.917969 61.082031 C 63.542969 62.292969 71.75 66.375 73.875 67.082031 C 75.792969 67.667969 75.457031 68.332031 72.832031 69.167969 C 71.832031 69.457031 70.042969 70.167969 68.792969 70.707031 C 65.292969 72.25 64.707031 72.292969 61.25 70.832031 C 55.957031 68.582031 52 66.667969 49.082031 64.917969 C 45.875 63 45.042969 62.207031 45.875 61.875 C 47.457031 61.292969 59.167969 59.667969 60 59.917969 C 60.332031 60.042969 61.207031 60.542969 61.917969 61.082031 Z M 86.917969 60.667969 C 88.082031 60.957031 89.375 61.625 89.792969 62.082031 C 90.207031 62.542969 90.457031 62.917969 90.332031 62.917969 C 89.75 62.917969 85.375 61.25 83.917969 60.457031 C 82.417969 59.667969 82.375 59.582031 83.542969 59.832031 C 84.25 59.957031 85.75 60.332031 86.917969 60.667969 Z M 181.582031 60.917969 C 183.457031 61.125 185 61.5 185 61.707031 C 185 62.792969 178.75 65.832031 172.167969 67.957031 C 169.457031 68.792969 168.957031 68.832031 167.792969 68.375 C 166.625 67.875 160.042969 65.625 158.332031 65.125 C 158 65 159.5 64.332031 161.707031 63.542969 C 163.917969 62.792969 166.292969 61.875 167.042969 61.457031 C 169.832031 60.042969 173.625 59.875 181.582031 60.917969 Z M 146.125 63.042969 C 146.667969 63.582031 146.667969 63.832031 146.167969 64.832031 C 145.667969 65.957031 145.417969 66.042969 143 66.167969 C 141.582031 66.25 140.417969 66.207031 140.417969 66.125 C 140.417969 65.832031 141.75 61.457031 141.917969 61.167969 C 142.167969 60.792969 145.292969 62.207031 146.125 63.042969 Z M 104.167969 63.207031 C 104.957031 65.292969 104.5 66 102.417969 65.707031 C 99.582031 65.332031 99.167969 63.375 101.667969 62.042969 C 103.25 61.167969 103.375 61.25 104.167969 63.207031 Z M 162.332031 61.957031 C 161.957031 62.332031 158.625 63.332031 158.417969 63.167969 C 158.292969 63 161.542969 61.75 162.25 61.707031 C 162.457031 61.667969 162.5 61.792969 162.332031 61.957031 Z M 191.667969 62.5 C 197.582031 63.457031 201.832031 64.207031 202.167969 64.417969 C 203.832031 65.457031 193.167969 70.832031 183.917969 73.625 L 181.792969 74.292969 L 177.042969 72.25 C 174.207031 71.042969 172.292969 69.957031 172.292969 69.625 C 172.292969 69.292969 173.292969 68.707031 174.792969 68.25 C 177.667969 67.332031 182.167969 65.292969 183.707031 64.207031 C 185.792969 62.707031 188.125 61.667969 188.75 61.917969 C 189.082031 62.042969 190.417969 62.332031 191.667969 62.5 Z M 97.292969 65.75 C 98.457031 66 100.792969 66.457031 102.5 66.792969 C 104.207031 67.167969 106.332031 67.582031 107.207031 67.707031 C 108.042969 67.832031 108.75 68.082031 108.75 68.25 C 108.75 68.417969 107.917969 69.457031 106.832031 70.582031 L 104.957031 72.625 L 102.042969 72.375 C 96.082031 71.875 80.832031 68.667969 80.832031 67.917969 C 80.832031 67.582031 83 66.707031 86.457031 65.667969 C 88.667969 64.957031 93.417969 65.042969 97.292969 65.75 Z M 162.832031 67.707031 C 164.75 68.292969 166.25 69 166.167969 69.25 C 165.957031 69.792969 163.25 70.542969 158.125 71.417969 C 150.707031 72.667969 145.417969 73.332031 142.832031 73.332031 L 140.207031 73.332031 L 138.417969 71 C 137.417969 69.707031 136.707031 68.582031 136.832031 68.457031 C 136.957031 68.332031 138.582031 68.042969 140.5 67.832031 C 142.417969 67.582031 145.542969 67.167969 147.5 66.832031 C 152.707031 66 158.582031 66.332031 162.832031 67.707031 Z M 133.917969 68.75 C 134.875 68.75 135.582031 69.25 137.125 70.917969 C 138.667969 72.625 139 73.167969 138.542969 73.417969 C 137.332031 74.125 110 73.792969 107.417969 73.082031 C 106.5 72.792969 106.875 71.792969 108.457031 70.417969 C 110.832031 68.417969 110.832031 68.417969 122.042969 68.625 C 127.917969 68.707031 133.25 68.792969 133.917969 68.75 Z M 83.75 70.082031 C 87.832031 71.207031 97.375 73.125 100.957031 73.542969 C 102.082031 73.707031 103.042969 74.042969 103.207031 74.375 C 103.292969 74.707031 102.542969 76 101.417969 77.292969 C 99.917969 79.042969 99.167969 79.582031 98.292969 79.582031 C 96.125 79.582031 80.207031 76.707031 76.25 75.582031 C 68.75 73.5 67.457031 73.082031 67.5 72.667969 C 67.542969 72.457031 68.917969 71.792969 70.542969 71.207031 C 72.207031 70.625 74.207031 69.832031 75 69.457031 C 76.832031 68.625 78.75 68.75 83.75 70.082031 Z M 172.5 71.5 C 173.75 72.082031 175.792969 72.957031 177 73.417969 C 178.207031 73.875 179.125 74.457031 179.042969 74.707031 C 178.875 75.292969 173.125 76.792969 167.707031 77.707031 C 160.167969 79 158.875 79.207031 153.542969 79.792969 C 145.25 80.75 145.707031 80.832031 143.542969 77.875 C 142.5 76.457031 141.792969 75.167969 141.917969 74.957031 C 142.042969 74.75 143.082031 74.582031 144.25 74.582031 C 145.417969 74.582031 147.5 74.375 148.917969 74.167969 C 158.042969 72.667969 161.417969 72 164.167969 71.292969 C 168.375 70.207031 169.792969 70.25 172.5 71.5 Z M 66.707031 74 C 72.582031 76.125 86.957031 79.332031 96.375 80.667969 C 97.457031 80.792969 98.332031 81.042969 98.332031 81.207031 C 98.332031 81.332031 96.957031 83.125 95.292969 85.207031 L 92.25 88.957031 L 88 89 C 85.667969 89.042969 78.082031 88.917969 71.125 88.707031 C 64.207031 88.542969 52.167969 88.292969 44.375 88.125 C 36.582031 87.957031 30.042969 87.667969 29.875 87.5 C 29.667969 87.332031 30.417969 86.832031 31.542969 86.457031 C 32.625 86.042969 34.875 85.207031 36.457031 84.582031 C 38.082031 83.957031 41.332031 82.667969 43.75 81.75 C 51.875 78.625 60.207031 75.332031 61.875 74.582031 C 62.792969 74.207031 63.832031 73.75 64.167969 73.625 C 64.5 73.5 64.832031 73.375 64.832031 73.375 C 64.875 73.332031 65.707031 73.625 66.707031 74 Z M 115.625 75.042969 C 119.917969 75.332031 126.125 75.417969 131.375 75.25 L 140.082031 74.957031 L 141.457031 76.5 C 143.082031 78.25 143.957031 80.25 143.292969 80.667969 C 141.832031 81.542969 112.375 81.167969 104.167969 80.167969 C 100.792969 79.75 100.707031 79.5 103.082031 77 C 103.667969 76.375 104.167969 75.667969 104.167969 75.457031 C 104.167969 74.707031 105.625 74.167969 107.082031 74.375 C 107.875 74.457031 111.75 74.792969 115.625 75.042969 Z M 186.332031 77.417969 C 188.25 78.332031 190.542969 79.292969 191.457031 79.582031 C 192.375 79.875 193.792969 80.457031 194.582031 80.875 C 195.375 81.332031 196.167969 81.667969 196.375 81.667969 C 196.582031 81.667969 198.375 82.417969 200.332031 83.292969 C 202.332031 84.207031 205.292969 85.457031 206.875 86.082031 C 208.5 86.707031 210.167969 87.5 210.625 87.792969 C 211.082031 88.082031 211.667969 88.332031 211.957031 88.332031 C 212.707031 88.332031 217.167969 90.5 216.917969 90.75 C 216.667969 91 200.832031 90.917969 192.292969 90.625 C 189.082031 90.5 178.875 90.332031 169.582031 90.207031 L 152.707031 90 L 151.332031 88.417969 C 149.707031 86.625 147.082031 82.75 147.082031 82.167969 C 147.082031 81.957031 149.292969 81.542969 152 81.25 C 158.957031 80.542969 168.042969 78.957031 174.582031 77.332031 C 177.667969 76.542969 180.792969 75.917969 181.542969 75.875 C 182.25 75.832031 184.417969 76.542969 186.332031 77.417969 Z M 108.75 82.042969 C 110.457031 82.25 119.417969 82.375 128.625 82.332031 L 145.417969 82.292969 L 147.917969 85.667969 C 149.292969 87.542969 150.417969 89.292969 150.417969 89.582031 C 150.417969 90 148 90.082031 138.457031 89.832031 C 131.832031 89.707031 122.167969 89.582031 116.875 89.582031 C 105.917969 89.582031 93.75 89.167969 93.75 88.792969 C 93.75 88.667969 94.457031 87.75 95.332031 86.832031 C 96.167969 85.875 97.167969 84.667969 97.5 84.167969 C 97.832031 83.667969 98.5 82.75 98.917969 82.207031 C 99.792969 81.042969 99.332031 81.042969 108.75 82.042969 Z M 108.125 91.667969 C 108.5 92.875 108 93.457031 106.75 93.125 C 104.582031 92.582031 104.332031 90.832031 106.417969 90.832031 C 107.5 90.832031 107.917969 91.042969 108.125 91.667969 Z M 114.375 91.167969 C 114.957031 91.582031 115.082031 92.417969 114.75 93.875 L 114.5 95.125 L 112.167969 94.832031 C 110.875 94.667969 109.625 94.375 109.417969 94.167969 C 109.207031 93.957031 109.207031 93.125 109.332031 92.332031 C 109.625 90.832031 109.625 90.832031 111.792969 90.832031 C 113 90.832031 114.167969 91 114.375 91.167969 Z M 128.207031 91.25 C 128.457031 91.25 128.792969 92 128.957031 92.917969 C 129.417969 95.667969 129.042969 95.832031 122.957031 95.832031 C 115.917969 95.832031 115.792969 95.75 116.082031 93.582031 C 116.5 90.542969 116.125 90.707031 122.207031 91 C 125.207031 91.125 127.917969 91.25 128.207031 91.25 Z M 135.25 91.25 C 135.917969 91.25 136.125 91.542969 136.167969 92.457031 C 136.167969 93.125 135.957031 93.875 135.707031 94.082031 C 135 94.582031 130.832031 95.457031 130.375 95.167969 C 130.167969 95.042969 130 94.125 130 93.125 C 130 91.375 130.042969 91.292969 131.375 91.125 C 132.082031 91.042969 133.082031 91 133.542969 91.082031 C 134 91.167969 134.75 91.25 135.25 91.25 Z M 139.582031 91.875 C 139.582031 92.542969 137.957031 93.375 137.417969 93.042969 C 137.207031 92.957031 137.082031 92.5 137.082031 92.042969 C 137.082031 91.457031 137.375 91.25 138.332031 91.25 C 139.167969 91.25 139.582031 91.457031 139.582031 91.875 Z M 103.375 96.625 C 103.167969 98.5 102.875 100.167969 102.75 100.292969 C 102.625 100.417969 102.207031 100.292969 101.832031 99.957031 C 101.25 99.5 101.207031 98.875 101.417969 95.875 C 101.582031 93.917969 101.832031 92.167969 101.957031 91.957031 C 102.082031 91.75 102.542969 91.957031 102.957031 92.375 C 103.707031 93.082031 103.75 93.5 103.375 96.625 Z M 143.25 95.75 C 143.292969 99.375 143.082031 100.417969 142.292969 100.417969 C 141.667969 100.417969 141.332031 98.75 141.207031 95.25 C 141.125 93.292969 141.25 92.707031 141.875 92.25 C 142.957031 91.417969 143.207031 92 143.25 95.75 Z M 107.167969 94.625 C 107.957031 95.042969 108 95.332031 107.75 97.875 C 107.292969 102.5 107.082031 103.332031 106.25 103.332031 C 105.832031 103.332031 105.082031 103 104.582031 102.582031 C 103.707031 101.875 103.667969 101.667969 104.125 99.542969 C 104.375 98.332031 104.667969 96.582031 104.792969 95.707031 C 105.042969 94.082031 105.625 93.792969 107.167969 94.625 Z M 140.082031 95.832031 C 140.25 96.625 140.417969 98.375 140.457031 99.707031 C 140.542969 101.625 140.375 102.207031 139.75 102.707031 C 138.082031 103.957031 137.875 103.582031 137.292969 97.957031 C 137.082031 96.207031 137.207031 95.542969 137.75 94.917969 C 138.792969 93.792969 139.707031 94.167969 140.082031 95.832031 Z M 136.292969 97.625 C 136.292969 98.375 136.375 100.082031 136.5 101.5 C 136.707031 104 136.707031 104.042969 135.542969 104.5 C 134.917969 104.75 133.582031 105.167969 132.582031 105.375 C 130.875 105.75 130.75 105.707031 130.375 104.667969 C 130.167969 104.082031 130.042969 102.082031 130.082031 100.25 L 130.207031 96.875 L 132.25 96.375 C 133.332031 96.082031 134.375 95.792969 134.457031 95.667969 C 135.042969 95.082031 136.25 96.375 136.292969 97.625 Z M 114.082031 96.542969 C 114.582031 96.75 114.667969 97.457031 114.417969 101 C 114.25 103.292969 113.917969 105.292969 113.707031 105.457031 C 113.25 105.707031 108.875 104.832031 108.417969 104.417969 C 108.292969 104.25 108.417969 102.957031 108.667969 101.5 C 108.957031 100.042969 109.167969 98.292969 109.167969 97.625 C 109.167969 96.957031 109.292969 96.25 109.457031 96.082031 C 109.792969 95.792969 112.875 96.082031 114.082031 96.542969 Z M 128.917969 97.5 C 129.082031 97.707031 129.332031 104.207031 129.207031 105.292969 C 129.207031 105.542969 128.582031 105.875 127.875 106.042969 C 126.207031 106.417969 116.417969 106.375 115.792969 106 C 115.457031 105.832031 115.417969 104.542969 115.625 101.707031 C 115.792969 99.5 116 97.582031 116.082031 97.417969 C 116.292969 97.125 128.582031 97.207031 128.917969 97.5 Z M 78.332031 99 L 96.042969 99.25 L 97.167969 100.5 C 98.457031 101.917969 99 103.25 98.457031 103.792969 C 98.292969 103.957031 97.082031 104.25 95.832031 104.375 C 94.582031 104.542969 93.082031 104.75 92.5 104.832031 C 85.667969 106 83.125 106.542969 78.332031 107.75 C 75.042969 108.582031 72.292969 109.082031 71.667969 108.957031 C 69.75 108.5 63.542969 105.707031 62.667969 104.957031 C 62.207031 104.5 61.667969 104.167969 61.5 104.167969 C 60.917969 104.167969 54.167969 99.042969 54.167969 98.582031 C 54.167969 98.375 55.457031 98.332031 57.417969 98.5 C 59.167969 98.625 68.582031 98.875 78.332031 99 Z M 99.5 100.375 C 99.625 100.707031 99.457031 100.875 99.125 100.75 C 98.832031 100.667969 98.5 100.332031 98.417969 100.042969 C 98.292969 99.707031 98.457031 99.542969 98.792969 99.667969 C 99.082031 99.75 99.417969 100.082031 99.5 100.375 Z M 146.667969 100.207031 C 146.667969 101.25 145 103.207031 145 102.167969 C 145 102 144.875 101.457031 144.75 100.917969 C 144.542969 100.125 144.667969 100 145.582031 100 C 146.167969 100 146.667969 100.082031 146.667969 100.207031 Z M 183.667969 100.375 C 186.457031 100.417969 188.75 100.582031 188.75 100.75 C 188.75 100.917969 188.167969 101.457031 187.457031 101.875 C 186.75 102.332031 185.667969 103.042969 185.042969 103.417969 C 183.125 104.667969 177.832031 107.292969 174.292969 108.75 C 171.167969 110 170.707031 110.082031 169.082031 109.707031 C 168.082031 109.457031 164.875 108.582031 161.875 107.792969 C 155.207031 106.042969 152.707031 105.5 149 105 C 147.457031 104.792969 146.042969 104.542969 145.917969 104.417969 C 145.792969 104.292969 146 103.832031 146.332031 103.457031 C 146.707031 103.042969 147.292969 102.082031 147.667969 101.332031 L 148.375 99.917969 L 163.457031 100.167969 C 171.75 100.292969 180.832031 100.375 183.667969 100.375 Z M 101.792969 103.457031 C 101.75 105.5 100.667969 109.292969 99.75 110.542969 C 99.25 111.292969 99.207031 111.292969 98.792969 110.457031 C 98.417969 109.792969 98.542969 108.832031 99.207031 106.167969 C 99.707031 104.25 100.292969 102.375 100.5 101.957031 C 101.167969 100.625 101.875 101.417969 101.792969 103.457031 Z M 143.917969 102.582031 C 144.125 103.625 144.457031 105.582031 144.832031 108.167969 C 145 109.25 144.917969 110 144.625 110.167969 C 144.042969 110.542969 143.542969 109.332031 142.707031 105.667969 C 142.207031 103.5 142.207031 102.667969 142.542969 102.25 C 143.25 101.417969 143.707031 101.542969 143.917969 102.582031 Z M 105.5 104.707031 L 106.542969 105.667969 L 105.417969 110.25 C 104.167969 115.292969 103.792969 115.707031 101.75 113.957031 L 100.457031 112.875 L 101.25 110.707031 C 101.707031 109.5 102.375 107.457031 102.707031 106.125 C 103.082031 104.832031 103.625 103.75 103.917969 103.75 C 104.207031 103.75 104.917969 104.167969 105.5 104.707031 Z M 141.25 104.457031 C 141.25 104.875 141.75 106.875 142.375 108.917969 L 143.5 112.625 L 142.332031 113.582031 C 140.917969 114.832031 140.082031 114.832031 139.792969 113.625 C 139.707031 113.125 139.332031 111.417969 138.957031 109.875 C 138.125 106.167969 138.167969 104.707031 139.082031 104.207031 C 140.207031 103.542969 141.25 103.667969 141.25 104.457031 Z M 97.792969 106.917969 C 97.457031 109 96.957031 109.457031 94.667969 109.792969 C 93.582031 109.917969 91.125 110.457031 89.167969 110.917969 C 86.5 111.542969 84.875 111.707031 82.625 111.5 C 79.542969 111.25 75.832031 110.417969 75.832031 110 C 75.832031 109.207031 92.292969 105.707031 97.042969 105.457031 C 97.957031 105.417969 98 105.542969 97.792969 106.917969 Z M 111.25 106.542969 C 112.707031 106.792969 114.292969 107.792969 114 108.292969 C 113.707031 108.75 113.332031 112.25 113.292969 114.707031 C 113.207031 117.75 112.832031 118.042969 109.957031 117.332031 C 107.625 116.707031 105.417969 115.957031 105.417969 115.75 C 105.417969 115.667969 105.792969 114.417969 106.25 113 C 106.707031 111.542969 107.082031 109.957031 107.082031 109.542969 C 107.082031 109.082031 107.375 108.042969 107.707031 107.25 C 108.207031 106.082031 108.5 105.792969 109.042969 106.042969 C 109.457031 106.207031 110.457031 106.417969 111.25 106.542969 Z M 136.875 106.332031 C 136.957031 106.625 137.457031 108.707031 137.957031 110.957031 C 138.792969 114.542969 138.832031 115.125 138.292969 115.667969 C 137.417969 116.5 132 118 131.5 117.5 C 131.292969 117.292969 130.957031 115.042969 130.75 112.457031 C 130.292969 107.082031 130.417969 106.875 133.375 106.292969 C 136.042969 105.75 136.667969 105.792969 136.875 106.332031 Z M 152.292969 106.875 C 156.75 107.625 166.332031 109.957031 166.792969 110.417969 C 166.957031 110.582031 166.5 110.957031 165.792969 111.292969 C 163.667969 112.167969 157.457031 112 153.332031 110.957031 C 151.375 110.457031 149.125 109.957031 148.292969 109.792969 C 147.082031 109.625 146.625 109.292969 146.25 108.332031 C 145.542969 106.582031 145.957031 105.707031 147.375 106 C 148.042969 106.125 150.25 106.542969 152.292969 106.875 Z M 129.625 111.042969 C 129.75 112.875 130.042969 115.167969 130.207031 116.125 C 130.5 117.792969 130.457031 117.875 129.332031 118.207031 C 128.042969 118.542969 114.792969 118.667969 114.457031 118.332031 C 114.25 118.167969 114.917969 109.207031 115.207031 108.125 C 115.25 107.875 118 107.707031 122.332031 107.707031 L 129.375 107.707031 Z M 77.667969 111.832031 L 81.375 112.792969 L 76.832031 114.582031 C 72.375 116.375 67.167969 119.082031 65.75 120.332031 C 65.207031 120.792969 64.417969 120.875 62.625 120.707031 C 59.292969 120.417969 54.125 119.125 54.292969 118.625 C 54.582031 117.75 62.582031 113.875 68.25 111.832031 C 71.707031 110.625 73 110.625 77.667969 111.832031 Z M 98.332031 114.625 C 97.875 116.207031 94.375 122.207031 93.457031 122.957031 C 92.917969 123.417969 92.75 123.375 92.25 122.707031 C 91.375 121.542969 91.542969 120.332031 92.75 118.707031 C 93.332031 117.917969 94.667969 115.832031 95.707031 114 L 97.625 110.75 L 98.167969 112.042969 C 98.542969 112.917969 98.582031 113.707031 98.332031 114.625 Z M 150.375 111.5 C 150.792969 111.875 148.917969 111.625 148.332031 111.25 C 147.875 110.917969 148.042969 110.875 148.957031 111.082031 C 149.667969 111.25 150.292969 111.417969 150.375 111.5 Z M 172.957031 112.457031 C 173.792969 112.917969 175.417969 113.542969 176.625 113.917969 C 179.457031 114.75 189.582031 120 189.582031 120.625 C 189.582031 121.207031 187.457031 121.875 183.457031 122.542969 C 180.832031 122.957031 180.332031 122.957031 179.5 122.375 C 173.332031 118.042969 170.957031 116.707031 166.125 114.75 C 164.582031 114.125 163.417969 113.542969 163.5 113.457031 C 163.875 113.082031 169.042969 111.707031 170.207031 111.707031 C 170.917969 111.667969 172.125 112.042969 172.957031 112.457031 Z M 148.167969 115.292969 C 149.042969 117.082031 150.207031 119.167969 150.75 119.957031 C 151.582031 121.207031 151.667969 121.5 151.207031 122.582031 C 150.957031 123.25 150.5 123.707031 150.25 123.625 C 149.167969 123.25 144.75 113.75 145.167969 112.625 C 145.667969 111.417969 146.625 112.25 148.167969 115.292969 Z M 94.167969 112.667969 C 94.167969 112.75 93.207031 113.125 92 113.542969 C 88.542969 114.667969 84.25 117 82.292969 118.792969 C 80.667969 120.292969 80.125 120.542969 77.625 120.832031 C 75.082031 121.167969 70.582031 121.375 67.957031 121.292969 C 66.292969 121.207031 67.542969 120.292969 72.625 117.792969 C 79.792969 114.207031 82.792969 113.25 88.125 112.917969 C 90.667969 112.792969 93.042969 112.625 93.457031 112.582031 C 93.832031 112.542969 94.167969 112.582031 94.167969 112.667969 Z M 157.5 113.75 C 161.667969 114.167969 165.75 115.667969 172.707031 119.417969 C 179.625 123.125 179.582031 123.542969 172.417969 123.207031 C 165.582031 122.875 164.332031 122.582031 162.5 120.832031 C 160.917969 119.292969 154.5 115 153.832031 115 C 153.625 115 152.625 114.625 151.625 114.167969 L 149.792969 113.332031 L 151.667969 113.332031 C 152.707031 113.332031 155.332031 113.542969 157.5 113.75 Z M 101.792969 115.5 C 102.542969 116.042969 103.207031 116.5 103.292969 116.542969 C 103.625 116.75 102.457031 120.167969 101.042969 123.167969 C 100.292969 124.792969 99.542969 126.5 99.417969 127 C 99.25 127.5 98.917969 127.917969 98.667969 127.917969 C 97.957031 127.917969 94.167969 125.375 94.167969 124.917969 C 94.167969 124.667969 95.292969 122.667969 96.667969 120.375 C 98.042969 118.125 99.167969 116.125 99.167969 115.917969 C 99.167969 115.582031 100.042969 114.582031 100.292969 114.582031 C 100.375 114.582031 101.042969 115 101.792969 115.5 Z M 145.207031 117.375 C 145.875 118.957031 147.042969 121.292969 147.792969 122.582031 C 148.542969 123.875 149.167969 125.042969 149.167969 125.167969 C 149.167969 125.542969 145.75 127.917969 145.207031 127.917969 C 144.707031 127.917969 142.917969 124.667969 142.917969 123.792969 C 142.917969 123.542969 142.75 123 142.542969 122.582031 C 141.917969 121.5 140.832031 117.667969 140.832031 116.707031 C 140.832031 115.917969 142.5 114.625 143.582031 114.582031 C 143.832031 114.582031 144.582031 115.832031 145.207031 117.375 Z M 41.375 115.707031 C 41.542969 115.832031 43.375 116.625 45.5 117.457031 C 47.582031 118.292969 49.375 119.167969 49.457031 119.417969 C 49.542969 119.667969 48.917969 120.332031 48.042969 120.957031 C 46.082031 122.25 41.332031 126.875 40.207031 128.542969 C 39.707031 129.25 39 130.625 38.542969 131.667969 C 37.375 134.5 37.207031 134.582031 34.542969 134.582031 C 31.957031 134.582031 31.582031 134.25 32.457031 132.582031 C 33.25 131.125 34.167969 129.042969 34.167969 128.625 C 34.167969 128.417969 34.457031 127.625 34.792969 126.832031 C 35.125 126.042969 35.707031 124.792969 36.042969 124 C 36.375 123.207031 36.667969 122.457031 36.667969 122.292969 C 36.667969 122 37.457031 120.125 38.832031 117.167969 C 39.582031 115.542969 40.625 114.917969 41.375 115.707031 Z M 90.417969 115.75 C 90.417969 116.082031 85.25 118.75 84.667969 118.75 C 84.5 118.75 85.332031 118.167969 86.457031 117.457031 C 87.625 116.792969 88.832031 116.042969 89.167969 115.832031 C 89.957031 115.375 90.417969 115.332031 90.417969 115.75 Z M 154.582031 116.75 C 156 117.5 157.875 118.75 158.707031 119.457031 L 160.207031 120.832031 L 158.125 119.957031 C 157 119.5 155.082031 118.542969 153.917969 117.875 C 149.542969 115.375 150.167969 114.417969 154.582031 116.75 Z M 140.625 121.125 C 141.332031 123.167969 142.25 125.542969 142.625 126.332031 C 143 127.167969 143.332031 128.125 143.332031 128.457031 C 143.332031 129.167969 137.667969 131.167969 134.542969 131.542969 L 132.625 131.75 L 132.375 130.167969 C 132.207031 129.25 131.957031 126.457031 131.832031 123.917969 L 131.542969 119.25 L 134 118.582031 C 135.332031 118.167969 136.917969 117.707031 137.5 117.5 C 138.082031 117.332031 138.707031 117.207031 138.957031 117.25 C 139.167969 117.292969 139.917969 119.042969 140.625 121.125 Z M 90.417969 118.832031 C 90.417969 119.917969 89.917969 120.75 88 122.75 C 85.5 125.417969 82 128.332031 81.332031 128.332031 C 81.125 128.332031 80.707031 128.625 80.417969 128.957031 C 80.125 129.292969 79.5 129.582031 79.042969 129.582031 C 78.292969 129.582031 78.25 129.375 78.457031 127.042969 C 78.792969 123.207031 80.082031 121.582031 83.625 120.375 C 85.167969 119.875 87.207031 119.042969 88.125 118.5 C 90.332031 117.292969 90.417969 117.292969 90.417969 118.832031 Z M 109.125 118.542969 C 111.042969 119.125 112.707031 119.667969 112.792969 119.75 C 112.957031 119.917969 112.167969 124.332031 111.082031 129.167969 L 110.582031 131.457031 L 108.917969 131.332031 C 108.042969 131.292969 105.75 130.75 103.875 130.125 C 100.25 129 99.832031 128.542969 100.957031 126.875 C 101.25 126.417969 101.875 125.082031 102.292969 123.957031 C 103.582031 120.457031 104.957031 117.5 105.292969 117.5 C 105.5 117.5 107.207031 118 109.125 118.542969 Z M 156.582031 120.582031 C 158.582031 121.625 160.875 122.707031 161.707031 123.082031 C 164.042969 124.042969 165.707031 128.125 164.75 130.582031 C 164.125 132.207031 161.332031 130.5 156.125 125.207031 C 153.667969 122.75 152.5 120.75 152.5 119.042969 C 152.5 118.542969 152.792969 118.667969 156.582031 120.582031 Z M 130.625 122.5 C 130.792969 124 131.082031 126.667969 131.292969 128.5 C 131.542969 130.292969 131.582031 131.875 131.457031 132.042969 C 131.082031 132.417969 112.625 132.375 112.25 131.957031 C 112.082031 131.792969 112.125 130.75 112.417969 129.667969 C 112.667969 128.582031 113 126.582031 113.125 125.207031 C 113.25 123.832031 113.542969 122.042969 113.75 121.25 L 114.125 119.792969 L 130.375 119.792969 Z M 56.25 120.832031 C 57.75 121.292969 59.292969 121.667969 59.667969 121.667969 C 60.042969 121.667969 60.875 121.875 61.5 122.082031 L 62.625 122.542969 L 61.167969 124.082031 C 58.582031 126.832031 56.625 130.582031 56.5 133.082031 C 56.417969 134.667969 54.917969 134.957031 46.917969 134.875 L 39.375 134.792969 L 39.25 133.75 C 39.125 132.582031 41.542969 128.582031 43.625 126.457031 C 47.917969 122.125 50.832031 120 52.5 120 C 53.082031 120 54.75 120.375 56.25 120.832031 Z M 194.792969 123.875 C 197.625 126.292969 201.667969 130.457031 202.125 131.457031 C 202.332031 131.917969 203 133.042969 203.542969 133.957031 C 204.125 134.875 204.582031 136.125 204.582031 136.75 L 204.582031 137.917969 L 196.167969 137.667969 C 191.5 137.542969 187.5 137.375 187.25 137.292969 C 187 137.207031 186.792969 136.125 186.75 134.832031 C 186.707031 132.375 185.167969 128.667969 183.042969 125.917969 C 182.457031 125.167969 182.082031 124.457031 182.125 124.375 C 182.417969 124.125 190.625 122.167969 191.667969 122.125 C 192.332031 122.125 193.457031 122.75 194.792969 123.875 Z M 78.332031 123.207031 C 78.332031 123.542969 78.042969 124.375 77.667969 125.082031 C 77.25 125.875 77.082031 127.082031 77.167969 128.5 C 77.292969 130.582031 77.25 130.625 75.792969 131.332031 C 72.125 133.167969 58.875 135.292969 57.832031 134.25 C 56.832031 133.25 59.625 127.625 62.75 124.375 L 64.375 122.707031 L 71.375 122.667969 C 77.082031 122.625 78.332031 122.707031 78.332031 123.207031 Z M 91.167969 123 C 92.292969 124.417969 92.125 125.332031 90.417969 127.332031 C 88.417969 129.707031 86.625 131.582031 84.042969 134.082031 L 82.207031 135.875 L 81.042969 134.5 C 79.457031 132.625 78.832031 131.167969 79.5 130.917969 C 80.957031 130.457031 85.292969 127.125 87.875 124.542969 C 89.917969 122.457031 90.5 122.207031 91.167969 123 Z M 153.542969 124.167969 C 153.667969 124.625 154.167969 125.207031 154.625 125.417969 C 155.042969 125.667969 155.417969 126.042969 155.417969 126.292969 C 155.417969 126.957031 161.042969 131.582031 162.625 132.207031 C 163.707031 132.625 163.5 134.082031 162.082031 135.457031 C 161.125 136.457031 160.707031 136.625 160.082031 136.292969 C 159.207031 135.832031 155.667969 131.792969 152.75 128.042969 C 150.792969 125.417969 150.792969 125.417969 151.542969 124.375 C 152.457031 123.125 153.207031 123.042969 153.542969 124.167969 Z M 181.75 126.375 C 184.082031 128.957031 185.332031 131.792969 185.5 134.792969 L 185.625 136.875 L 183.832031 137 C 181 137.207031 174.332031 135.917969 169.917969 134.292969 L 165.875 132.792969 L 165.957031 129.832031 C 166 128.207031 165.875 126.292969 165.707031 125.625 L 165.375 124.375 L 172.792969 124.5 L 180.207031 124.625 Z M 94.832031 127.125 C 95.25 127.625 96.125 128.25 96.75 128.582031 C 98.042969 129.25 98.25 130.457031 97.292969 131.25 C 96.957031 131.542969 96.667969 131.957031 96.667969 132.167969 C 96.667969 132.375 96.207031 133.167969 95.625 133.917969 C 95.042969 134.667969 94.582031 135.417969 94.582031 135.542969 C 94.582031 135.707031 93.917969 136.75 93.125 137.875 C 92.332031 138.957031 91.667969 140.082031 91.667969 140.375 C 91.667969 141.542969 87.25 139.875 84.167969 137.542969 L 83.167969 136.75 L 88.125 131.542969 C 90.875 128.667969 93.332031 126.292969 93.582031 126.292969 C 93.832031 126.25 94.375 126.625 94.832031 127.125 Z M 151.957031 129.082031 C 152.917969 130.375 154.917969 132.75 156.417969 134.375 C 157.917969 135.957031 159.125 137.5 159.167969 137.792969 C 159.167969 138.292969 153.542969 141.667969 152.667969 141.667969 C 152.042969 141.667969 149.582031 137.917969 146.875 132.75 C 145.5 130.207031 145.417969 129.832031 145.957031 129.25 C 146.542969 128.667969 149.542969 126.792969 150 126.707031 C 150.125 126.707031 151 127.75 151.957031 129.082031 Z M 101.707031 130.832031 C 102.125 131.082031 104.25 131.707031 106.375 132.25 C 108.707031 132.832031 110.25 133.457031 110.332031 133.792969 C 110.375 134.125 109.792969 136.792969 109.042969 139.792969 L 107.667969 145.207031 L 106.25 145.167969 C 104.292969 145.125 95.707031 143.125 93.207031 142.125 L 92.042969 141.667969 L 93.667969 139.292969 C 96.082031 135.75 97.917969 132.917969 97.917969 132.667969 C 97.917969 132.542969 98.207031 132 98.582031 131.457031 C 99.292969 130.332031 100.375 130.125 101.707031 130.832031 Z M 146.25 134.292969 C 147.25 136.417969 148.625 138.792969 149.25 139.582031 C 149.875 140.375 150.417969 141.332031 150.417969 141.707031 C 150.417969 142.625 146.917969 143.792969 140.457031 145 C 135.875 145.875 135.667969 145.875 135.125 145.167969 C 134.832031 144.75 134.582031 144 134.582031 143.5 C 134.582031 142.957031 134.207031 140.542969 133.707031 138.082031 C 133.25 135.667969 132.957031 133.582031 133.042969 133.457031 C 133.167969 133.375 134.875 132.917969 136.917969 132.417969 C 138.917969 131.957031 141.167969 131.292969 141.875 131 C 142.542969 130.707031 143.417969 130.457031 143.75 130.457031 C 144.125 130.457031 145.125 132 146.25 134.292969 Z M 78.75 133.292969 C 79 133.957031 79.582031 134.832031 80.042969 135.25 C 80.457031 135.625 80.832031 136.25 80.832031 136.625 C 80.832031 137.332031 75.5 141.5 71.667969 143.792969 C 70.417969 144.542969 68.625 145.625 67.707031 146.207031 C 65.042969 147.917969 64.792969 147.957031 63.25 146.792969 C 60.457031 144.582031 56.582031 137.082031 57.875 136.292969 C 58.167969 136.082031 60.292969 135.832031 62.625 135.707031 C 66.75 135.457031 72.832031 134.082031 75.832031 132.75 C 77.875 131.875 78.167969 131.917969 78.75 133.292969 Z M 122.875 133.917969 C 128.417969 133.917969 131.875 134.125 131.957031 134.375 C 132 134.582031 132.457031 136.75 132.875 139.167969 C 133.332031 141.582031 133.832031 144.042969 133.957031 144.667969 C 134.207031 145.667969 134.125 145.832031 133.082031 146.125 C 131.582031 146.542969 111.875 146.542969 110.25 146.125 C 109.25 145.832031 109.125 145.625 109.292969 144.667969 C 111.582031 133.542969 111.667969 133.292969 113 133.625 C 113.542969 133.75 117.957031 133.875 122.875 133.917969 Z M 166.917969 134.542969 C 167.832031 135.417969 175.167969 137.5 178.75 137.917969 C 184.75 138.625 185.417969 138.75 185.417969 139.125 C 185.417969 140.167969 182.667969 144.667969 180.957031 146.375 C 178.417969 148.957031 177.832031 149.25 176.457031 148.75 C 174.042969 147.832031 162.082031 138.792969 162.082031 137.875 C 162.082031 137.625 162.75 136.707031 163.625 135.832031 C 165.125 134.207031 166.125 133.792969 166.917969 134.542969 Z M 35.917969 136.207031 C 36.957031 136.25 37 136.332031 37 138.417969 C 37 142.542969 39.457031 147.375 43.792969 151.667969 C 47.125 155 47.167969 154.917969 41.875 155.957031 C 33.875 157.5 23.625 158.332031 23.125 157.5 C 22.957031 157.207031 23.667969 154.917969 24.707031 152.375 C 25.75 149.792969 27.582031 145.167969 28.792969 142.082031 C 30.042969 139 31.167969 136.332031 31.375 136.207031 C 31.542969 136.082031 32.417969 136 33.25 136.082031 C 34.082031 136.125 35.292969 136.167969 35.917969 136.207031 Z M 56 136.5 C 56.292969 136.625 56.542969 137.457031 56.582031 138.417969 C 56.625 139.457031 57.125 140.875 57.792969 142 C 58.457031 143 59.167969 144.207031 59.417969 144.625 C 59.667969 145.042969 60.542969 146.082031 61.375 146.875 C 62.25 147.707031 62.917969 148.542969 62.917969 148.707031 C 62.917969 149.417969 50.667969 154.167969 48.957031 154.167969 C 47.917969 154.167969 43.875 150.5 41.917969 147.792969 C 39.457031 144.417969 38.125 140.542969 38.292969 137.207031 L 38.332031 136.25 L 46.917969 136.292969 C 51.625 136.292969 55.707031 136.375 56 136.5 Z M 84.417969 139.125 C 85.332031 139.75 86.792969 140.625 87.667969 141.042969 C 88.542969 141.457031 89.332031 142.042969 89.457031 142.332031 C 89.875 143.417969 79.207031 155.417969 77.832031 155.417969 C 77.417969 155.417969 76.75 155.25 76.332031 155.042969 C 75.957031 154.832031 74.417969 154.082031 72.917969 153.375 C 69.582031 151.832031 66.042969 149.5 66.082031 148.957031 C 66.125 148.707031 67.75 147.582031 69.707031 146.417969 C 71.667969 145.25 75.167969 142.875 77.5 141.125 C 79.832031 139.375 82 137.917969 82.25 137.917969 C 82.542969 137.917969 83.542969 138.457031 84.417969 139.125 Z M 199.167969 139.167969 C 202.042969 139.167969 204.582031 139.332031 204.875 139.5 C 205.625 139.957031 204.542969 144.332031 202.875 147.417969 C 201.5 150 196.167969 155.75 194.707031 156.292969 C 194.332031 156.417969 192.667969 156.125 191.082031 155.625 C 188.042969 154.667969 179.167969 150.667969 179.167969 150.25 C 179.167969 150.082031 180.25 148.875 181.625 147.5 C 183.957031 145.082031 185.167969 143.167969 186.292969 140.082031 L 186.792969 138.707031 L 190.375 138.917969 C 192.332031 139.042969 196.292969 139.125 199.167969 139.167969 Z M 163.375 141.125 C 164.542969 142.25 165.957031 143.417969 166.457031 143.75 C 171.667969 147.292969 175.042969 149.542969 175.457031 149.667969 C 176.625 150.042969 175.25 151.207031 171.207031 153.207031 C 168.832031 154.375 166.167969 155.582031 165.292969 155.875 C 163.667969 156.457031 163.667969 156.457031 162.167969 154.75 C 159.917969 152.292969 157.332031 149.167969 156.917969 148.375 C 156.707031 148 155.792969 146.792969 154.917969 145.707031 C 154.042969 144.582031 153.332031 143.457031 153.332031 143.207031 C 153.332031 142.667969 159.375 139.332031 160.5 139.207031 C 160.875 139.207031 162.167969 140.042969 163.375 141.125 Z M 210.75 139.582031 C 211.75 139.582031 212.082031 139.75 212.082031 140.292969 C 212.082031 140.707031 212.582031 142.332031 213.167969 143.957031 C 213.75 145.542969 214.332031 147.332031 214.457031 147.917969 C 214.625 148.5 214.957031 149.332031 215.25 149.792969 C 215.542969 150.25 215.875 151.082031 216 151.667969 C 216.082031 152.25 216.75 154.332031 217.417969 156.375 L 218.625 160 L 217.667969 160.25 C 215.457031 160.792969 197.625 158.207031 196.582031 157.167969 C 196.417969 157 197.75 155.332031 199.542969 153.5 C 203.625 149.332031 206.207031 144.542969 206.25 141.167969 C 206.25 139.875 207.292969 139.082031 208.542969 139.375 C 209 139.5 210 139.582031 210.75 139.582031 Z M 94.582031 144.042969 C 95.375 144.375 98.457031 145.167969 101.417969 145.832031 C 104.332031 146.5 106.875 147.167969 107 147.292969 C 107.125 147.417969 107 148.125 106.707031 148.875 C 106.167969 150.292969 105.375 152.832031 104.542969 155.832031 C 104.25 156.875 103.667969 158.542969 103.207031 159.542969 L 102.375 161.375 L 99.625 161.125 C 96.75 160.875 88.167969 159 83.125 157.5 C 81.542969 157.042969 80.167969 156.667969 80.125 156.667969 C 80.042969 156.667969 80 156.417969 80 156.125 C 80 155.832031 81.082031 154.457031 82.417969 153.082031 C 83.707031 151.707031 85.25 150.042969 85.792969 149.375 C 91.375 142.582031 91.25 142.667969 94.582031 144.042969 Z M 152.25 144.25 C 152.5 144.542969 153.375 145.707031 154.167969 146.875 C 154.957031 148 157.082031 150.625 158.875 152.707031 C 160.625 154.75 162.042969 156.625 161.957031 156.832031 C 161.667969 157.667969 150.417969 160.332031 142.167969 161.542969 C 139.542969 161.917969 139.5 161.917969 139.082031 160.875 C 138.457031 159.167969 136.167969 150.375 135.957031 148.707031 L 135.792969 147.207031 L 138.832031 146.707031 C 142.375 146.082031 149.582031 144.332031 149.917969 144 C 150.332031 143.582031 151.707031 143.75 152.25 144.25 Z M 122.5 148.125 C 124.207031 148.125 127.582031 148.042969 130 147.917969 L 134.332031 147.707031 L 134.667969 148.75 C 134.832031 149.332031 135.25 151 135.582031 152.5 C 135.957031 154 136.542969 156.25 136.917969 157.5 C 138.207031 161.957031 138.207031 161.917969 136.167969 162.25 C 133.082031 162.792969 115.042969 162.832031 109.582031 162.332031 L 104.375 161.875 L 104.5 160.207031 C 104.582031 159.292969 104.792969 158.375 104.957031 158.125 C 105.332031 157.667969 106.042969 155.5 107.5 150.5 L 108.375 147.417969 L 113.875 147.792969 C 116.917969 147.957031 120.792969 148.125 122.5 148.125 Z M 67.542969 151.667969 C 69.332031 152.832031 72.207031 154.417969 73.957031 155.207031 C 75.917969 156.082031 77.042969 156.832031 76.875 157.125 C 75.957031 158.582031 68.167969 165 67.332031 165 C 65.667969 165 51.5 157.25 50.667969 155.875 C 50.375 155.457031 53.542969 153.792969 54.707031 153.707031 C 55 153.707031 57.167969 152.792969 59.582031 151.667969 C 62 150.582031 64.042969 149.625 64.125 149.625 C 64.207031 149.582031 65.75 150.542969 67.542969 151.667969 Z M 187.417969 155.457031 C 189.875 156.417969 192.042969 157.332031 192.207031 157.5 C 192.625 157.875 187.917969 160.707031 183.707031 162.625 C 174.417969 166.917969 174.667969 166.832031 173.417969 166 C 171.792969 164.917969 165.417969 158.332031 165.417969 157.75 C 165.417969 157.457031 166.292969 156.875 167.417969 156.457031 C 169.542969 155.625 172.875 153.875 175.792969 152 L 177.667969 150.832031 L 180.292969 152.292969 C 181.75 153.082031 184.957031 154.542969 187.417969 155.457031 Z M 49.75 156.957031 C 51.417969 158.042969 51.957031 158.375 56.457031 161.167969 C 57.625 161.875 60.207031 163.25 62.207031 164.167969 C 64.207031 165.125 65.832031 166.042969 65.832031 166.25 C 65.832031 166.582031 62.207031 169.25 57.082031 172.75 C 52.875 175.582031 42.25 180.457031 33.75 183.457031 L 27.707031 185.542969 L 20.125 185.75 C 13.5 185.875 12.457031 185.832031 12.25 185.25 C 12 184.667969 12.707031 182.25 14 179.292969 C 14.332031 178.582031 14.582031 177.792969 14.582031 177.582031 C 14.582031 177.332031 14.957031 176.5 15.375 175.75 C 15.832031 175 16.417969 173.542969 16.707031 172.5 C 17 171.457031 17.375 170.417969 17.542969 170.207031 C 17.707031 169.957031 18.542969 168 19.375 165.832031 C 20.25 163.667969 21.167969 161.292969 21.5 160.582031 L 22.042969 159.292969 L 28.332031 159 C 34.832031 158.707031 39.375 158.082031 44.375 156.75 C 46 156.292969 47.457031 155.917969 47.667969 155.875 C 47.917969 155.875 48.832031 156.332031 49.75 156.957031 Z M 80.917969 157.875 C 84.792969 159.457031 91.582031 161.207031 98.082031 162.292969 C 99.875 162.625 101.5 163 101.667969 163.207031 C 101.875 163.375 101.542969 164.457031 101.042969 165.625 C 100.5 166.75 99.582031 168.75 99 170.082031 C 98.417969 171.375 97.792969 172.542969 97.582031 172.667969 C 97.042969 173 90.207031 171.875 84.792969 170.542969 C 80.292969 169.457031 70.917969 166.582031 69.707031 165.917969 C 69.25 165.625 69.667969 165.082031 71.542969 163.5 C 72.875 162.417969 74.875 160.582031 76 159.5 C 78.125 157.457031 79.082031 157.167969 80.917969 157.875 Z M 166.917969 161.582031 C 168.792969 163.332031 170.832031 165.25 171.5 165.792969 C 172.542969 166.667969 172.625 166.792969 172 167.25 C 171.332031 167.707031 163.625 169.75 156.042969 171.457031 C 153.707031 172 144.875 173.332031 143.75 173.332031 C 143.25 173.332031 140 164.625 140 163.332031 C 140 163.082031 140.582031 162.917969 141.292969 162.917969 C 144.042969 162.917969 159.582031 159.625 161.25 158.707031 C 162.625 157.957031 163.667969 158.457031 166.917969 161.582031 Z M 115.832031 164.125 C 119.625 164.25 126.167969 164.167969 130.417969 163.917969 C 134.667969 163.667969 138.25 163.5 138.375 163.582031 C 138.542969 163.667969 139.042969 164.917969 139.582031 166.332031 C 140.082031 167.792969 140.832031 169.707031 141.292969 170.667969 C 142.167969 172.542969 142.25 173.167969 141.75 173.5 C 140.875 174.042969 129.75 174.667969 121.25 174.625 C 112 174.625 100.25 173.75 99.542969 173.042969 C 99.292969 172.792969 99.667969 171.542969 100.375 169.957031 C 101 168.5 101.957031 166.375 102.457031 165.25 L 103.332031 163.207031 L 106.167969 163.542969 C 107.707031 163.707031 112.042969 163.957031 115.832031 164.125 Z M 70.75 167.667969 C 75 169.457031 84.375 171.917969 93.042969 173.582031 C 95.832031 174.125 96.667969 174.417969 96.667969 174.957031 C 96.625 175.332031 95.917969 176.957031 95.082031 178.625 C 94.25 180.25 92.875 182.875 92.082031 184.417969 L 90.667969 187.207031 L 71.25 186.875 C 60.582031 186.707031 50.832031 186.5 49.582031 186.457031 C 48.332031 186.417969 43.917969 186.332031 39.75 186.292969 C 32.917969 186.167969 29.917969 185.792969 31.667969 185.292969 C 35.917969 184.042969 43.582031 180.917969 48.917969 178.292969 C 55.75 174.917969 58.792969 173.125 64.332031 169.082031 C 66.167969 167.75 67.792969 166.667969 68 166.667969 C 68.207031 166.667969 69.417969 167.125 70.75 167.667969 Z M 177.167969 170.5 C 178.832031 171.667969 181.25 173.417969 182.5 174.332031 C 185.625 176.667969 187.082031 177.582031 188.542969 178.332031 C 189.25 178.667969 190.042969 179.082031 190.332031 179.332031 C 191.332031 180.042969 203.542969 185.667969 207.167969 187.082031 C 209.167969 187.875 210.667969 188.667969 210.542969 188.875 C 210.417969 189.042969 206.917969 189.125 202.75 189 C 198.625 188.875 188.292969 188.667969 179.792969 188.5 C 171.332031 188.375 161.75 188.207031 158.542969 188.125 C 155.332031 188.042969 152.082031 187.957031 151.375 187.957031 C 150.207031 187.917969 149.875 187.667969 149.082031 186.167969 C 147.042969 182.207031 144.125 175.375 144.375 175 C 144.5 174.75 145.125 174.582031 145.75 174.582031 C 148.957031 174.582031 169.042969 170.125 171.25 168.917969 C 173 167.957031 174.042969 168.25 177.167969 170.5 Z M 105.832031 175.375 C 111.957031 176.125 123.5 176.332031 131.667969 175.832031 C 136.125 175.542969 140.457031 175.292969 141.25 175.25 C 142.582031 175.207031 142.792969 175.375 143.625 177.082031 C 145.917969 181.832031 147.875 186.125 148.125 187.042969 L 148.417969 188 L 128.082031 187.75 C 103.75 187.417969 92.417969 187.125 92.125 186.832031 C 92 186.707031 92.25 186 92.667969 185.292969 C 93.082031 184.542969 94.375 182.082031 95.542969 179.792969 C 98.332031 174.207031 98.125 174.457031 100.625 174.75 C 101.75 174.917969 104.125 175.207031 105.832031 175.375 Z M 105.832031 175.375 "/>
<path style=" stroke:none;fill-rule:nonzero;fill:rgb(0%,0%,0%);fill-opacity:1;" d="M 46.457031 20 C 46.332031 20.207031 46.417969 20.417969 46.625 20.417969 C 46.875 20.417969 47.082031 20.207031 47.082031 20 C 47.082031 19.75 47 19.582031 46.917969 19.582031 C 46.792969 19.582031 46.582031 19.75 46.457031 20 Z M 46.457031 20 "/>
<path style=" stroke:none;fill-rule:nonzero;fill:rgb(0%,0%,0%);fill-opacity:1;" d="M 45.582031 21.5 C 45.417969 21.917969 45.207031 22.417969 45.125 22.582031 C 45.042969 22.792969 45.125 22.917969 45.375 22.917969 C 45.832031 22.917969 46.457031 21.292969 46.082031 20.957031 C 45.957031 20.832031 45.707031 21.082031 45.582031 21.5 Z M 45.582031 21.5 "/>
<path style=" stroke:none;fill-rule:nonzero;fill:rgb(0%,0%,0%);fill-opacity:1;" d="M 43.332031 26.207031 C 43.332031 26.417969 43.207031 26.957031 43.082031 27.375 C 42.832031 28.042969 42.875 28.042969 43.457031 27.292969 C 44.25 26.332031 44.332031 25.832031 43.75 25.832031 C 43.542969 25.832031 43.332031 26 43.332031 26.207031 Z M 43.332031 26.207031 "/>
<path style=" stroke:none;fill-rule:nonzero;fill:rgb(0%,0%,0%);fill-opacity:1;" d="M 41.917969 29.375 C 41.792969 29.707031 41.875 30 42.082031 30 C 42.332031 30 42.5 29.707031 42.5 29.375 C 42.5 29.042969 42.417969 28.75 42.332031 28.75 C 42.25 28.75 42.082031 29.042969 41.917969 29.375 Z M 41.917969 29.375 "/>
<path style=" stroke:none;fill-rule:nonzero;fill:rgb(0%,0%,0%);fill-opacity:1;" d="M 36.125 41.5 C 35.957031 41.667969 35.832031 42.082031 35.832031 42.457031 C 35.832031 42.917969 35.957031 42.957031 36.292969 42.625 C 36.542969 42.375 36.707031 41.957031 36.582031 41.667969 C 36.5 41.417969 36.292969 41.332031 36.125 41.5 Z M 36.125 41.5 "/>
<path style=" stroke:none;fill-rule:nonzero;fill:rgb(0%,0%,0%);fill-opacity:1;" d="M 34.832031 44.25 C 34.082031 45.292969 34 45.832031 34.542969 45.832031 C 34.75 45.832031 35.125 45.25 35.375 44.582031 C 35.875 43.082031 35.707031 43 34.832031 44.25 Z M 34.832031 44.25 "/>
<path style=" stroke:none;fill-rule:nonzero;fill:rgb(0%,0%,0%);fill-opacity:1;" d="M 30.707031 52.792969 C 30.042969 53.832031 29.625 55 29.707031 55.375 C 29.792969 55.792969 30.332031 55.082031 31 53.625 C 32.417969 50.667969 32.25 50.207031 30.707031 52.792969 Z M 30.707031 52.792969 "/>
<path style=" stroke:none;fill-rule:nonzero;fill:rgb(0%,0%,0%);fill-opacity:1;" d="M 28.082031 58.5 C 27.457031 59.792969 27.082031 60.957031 27.25 61.125 C 27.375 61.25 27.957031 60.292969 28.582031 59 C 29.167969 57.667969 29.582031 56.5 29.417969 56.375 C 29.292969 56.25 28.707031 57.207031 28.082031 58.5 Z M 28.082031 58.5 "/>
<path style=" stroke:none;fill-rule:nonzero;fill:rgb(0%,0%,0%);fill-opacity:1;" d="M 22.582031 69.875 C 21.457031 72.167969 20.375 74.457031 20.25 75.042969 L 19.957031 76.042969 L 20.792969 75 C 21.25 74.417969 21.667969 73.792969 21.667969 73.625 C 21.667969 73.417969 22.417969 71.667969 23.375 69.707031 C 24.292969 67.792969 24.957031 66.082031 24.875 65.957031 C 24.75 65.875 23.75 67.625 22.582031 69.875 Z M 22.582031 69.875 "/>
</g>
</svg>
